<svg xmlns="http://www.w3.org/2000/svg" width="512" height="512" viewBox="0 0 512 512" version="1.1"><path d="M 81.500 28.547 C 54.550 44.152, 31.712 57.888, 30.750 59.071 C 28.534 61.794, 28.544 65.867, 30.772 68.683 C 31.723 69.884, 54.775 83.721, 82 99.431 C 134.038 129.460, 135.273 130.027, 140.139 126.090 C 142.449 124.222, 142.507 123.770, 142.811 105.090 C 143.168 83.098, 141.904 84.948, 154.792 87.565 C 165.722 89.785, 184.339 96.142, 193.714 100.856 C 216.162 112.143, 240.709 133.335, 253.888 152.806 C 264.607 168.643, 273.796 188.819, 277.544 204.747 C 281.898 223.253, 282.166 227.151, 282.996 284 C 283.922 347.401, 284.157 349.546, 293.099 376.295 C 307.239 418.595, 335.614 455.291, 373.500 480.273 C 400.533 498.098, 436.605 510.427, 465.500 511.717 C 476.533 512.210, 477.702 512.089, 480 510.217 C 482.422 508.245, 482.510 507.737, 482.829 493.922 C 483.277 474.453, 482.700 473.585, 468.195 471.910 C 450.240 469.838, 433.888 465.787, 421 460.220 C 370.058 438.215, 336.223 396.068, 325.292 341 C 324.156 335.280, 323.616 320.681, 323.017 279.500 C 322.180 221.994, 321.667 215.339, 316.508 195.072 C 308.917 165.247, 296.953 141.949, 275.903 116 C 250.262 84.391, 210.596 59.341, 171.465 50.048 C 163.919 48.256, 146.121 45.017, 143.750 45.004 C 143.338 45.002, 143 35.980, 143 24.955 C 143 5.005, 142.988 4.897, 140.545 2.455 C 135.477 -2.614, 134.786 -2.308, 81.500 28.547" stroke="none" fill="#71717171" fill-rule="evenodd"/></svg>