<svg xmlns="http://www.w3.org/2000/svg" width="500" height="500" viewBox="0 0 500 500" version="1.1"><path d="M 195.701 78.632 C 195.316 79.018, 195 80.415, 195 81.736 C 195 83.656, 195.452 84.075, 197.250 83.820 C 198.894 83.586, 199.500 82.831, 199.500 81.014 C 199.500 78.600, 197.185 77.149, 195.701 78.632 M 157.359 97.507 C 157.006 98.427, 157.416 99.844, 158.286 100.714 C 160.410 102.838, 163.227 101.621, 162.820 98.754 C 162.426 95.977, 158.307 95.037, 157.359 97.507 M 241.750 100.732 C 244.088 100.943, 247.912 100.943, 250.250 100.732 C 252.588 100.522, 250.675 100.349, 246 100.349 C 241.325 100.349, 239.412 100.522, 241.750 100.732 M 237.250 106.689 C 238.213 106.941, 239.787 106.941, 240.750 106.689 C 241.713 106.438, 240.925 106.232, 239 106.232 C 237.075 106.232, 236.287 106.438, 237.250 106.689 M 237.500 111.690 C 231.495 112.471, 219.396 115.213, 215.189 116.747 C 209.455 118.837, 206.600 124.054, 206.568 132.500 C 206.541 139.566, 210.138 147.158, 215.916 152.231 C 220.520 156.274, 229.946 160.495, 237.831 162.046 C 252.362 164.905, 272.996 160.857, 285.104 152.772 C 291.673 148.385, 299.552 140.157, 302.500 134.605 L 304.500 130.839 301.500 128.415 C 297.843 125.459, 284.647 118.492, 278.798 116.429 C 268.928 112.946, 247.099 110.441, 237.500 111.690 M 258.241 119.995 C 251.298 124.228, 249.170 131.989, 253.280 138.088 C 256.187 142.401, 259.329 143.967, 265.115 143.985 C 279.140 144.030, 282.593 125.805, 269.672 119.938 C 264.357 117.525, 262.274 117.535, 258.241 119.995 M 319 129.500 C 320.866 131.425, 322.617 133, 322.892 133 C 323.167 133, 321.866 131.425, 320 129.500 C 318.134 127.575, 316.383 126, 316.108 126 C 315.833 126, 317.134 127.575, 319 129.500 M 224.250 179.728 C 226.313 179.944, 229.688 179.944, 231.750 179.728 C 233.813 179.513, 232.125 179.336, 228 179.336 C 223.875 179.336, 222.188 179.513, 224.250 179.728 M 275.250 179.735 C 277.863 179.941, 282.137 179.941, 284.750 179.735 C 287.363 179.529, 285.225 179.360, 280 179.360 C 274.775 179.360, 272.637 179.529, 275.250 179.735 M 314.250 179.716 C 315.762 179.945, 318.238 179.945, 319.750 179.716 C 321.262 179.487, 320.025 179.300, 317 179.300 C 313.975 179.300, 312.738 179.487, 314.250 179.716 M 127.232 184 C 127.232 185.925, 127.438 186.713, 127.689 185.750 C 127.941 184.787, 127.941 183.213, 127.689 182.250 C 127.438 181.287, 127.232 182.075, 127.232 184 M 141.578 199.500 C 141.772 201.700, 142.144 208.225, 142.404 214 C 142.898 224.980, 145.610 235.324, 151.449 248.500 C 155.311 257.214, 162.492 268.346, 166.549 271.909 C 168.485 273.609, 169.729 275, 169.312 275 C 168.895 275, 170.051 276.367, 171.880 278.037 C 174.564 280.489, 175.484 280.844, 176.650 279.876 C 177.815 278.909, 177.843 278.517, 176.797 277.854 C 176.084 277.401, 175.886 277.024, 176.358 277.015 C 176.829 277.007, 174.786 274.376, 171.818 271.170 C 165.020 263.828, 159.254 255.182, 156.765 248.600 C 155.705 245.795, 154.196 242.141, 153.414 240.480 C 150.372 234.026, 147.902 222.964, 146.774 210.750 C 145.765 199.831, 145.350 198, 143.881 198 C 142.938 198, 141.954 197.438, 141.695 196.750 C 141.436 196.063, 141.383 197.300, 141.578 199.500 M 345.684 209.750 C 344.960 223.671, 343.206 232.307, 338.921 243.045 C 334.886 253.156, 324.512 269.113, 316.993 276.775 C 313.817 280.011, 313.059 281.366, 313.874 282.348 C 314.725 283.374, 314.341 283.557, 312.042 283.220 C 309.493 282.845, 309.201 283.053, 309.683 284.896 C 310.247 287.053, 312 287.843, 312 285.941 C 312 285.359, 312.371 285.112, 312.825 285.392 C 313.838 286.018, 322.861 277.383, 328.043 270.827 C 342.901 252.030, 351 228.292, 351 203.539 C 351 198.390, 350.834 198, 348.647 198 C 346.345 198, 346.281 198.252, 345.684 209.750 M 341.232 204 C 341.232 205.925, 341.438 206.713, 341.689 205.750 C 341.941 204.787, 341.941 203.213, 341.689 202.250 C 341.438 201.287, 341.232 202.075, 341.232 204 M 134.314 219.623 C 132.562 224.189, 138.138 245.773, 143.786 256.286 C 146.113 260.617, 146.505 260.924, 147.913 259.515 C 149.322 258.107, 149.293 257.510, 147.615 253.230 C 142.725 240.757, 140.104 232.189, 139.471 226.610 C 138.794 220.644, 137.681 218, 135.846 218 C 135.346 218, 134.657 218.730, 134.314 219.623 M 374.608 220.250 C 374.371 221.488, 373.684 225.650, 373.081 229.500 C 372.479 233.350, 370.105 242.243, 367.806 249.263 C 363.605 262.091, 363.510 264.893, 367.328 263.428 C 370.813 262.090, 381.435 222.482, 379.309 218.750 C 378.331 217.033, 375.021 218.089, 374.608 220.250 M 197.617 254.994 C 192.864 258.591, 191.861 259.618, 194.500 258.185 C 196.792 256.940, 202.752 252.076, 202 252.064 C 201.725 252.059, 199.753 253.378, 197.617 254.994 M 357.336 255.567 C 357.005 256.429, 357.214 257.614, 357.800 258.200 C 359.355 259.755, 362 258.390, 362 256.031 C 362 253.565, 358.247 253.192, 357.336 255.567 M 351.187 267.549 C 345.988 271.264, 346.399 278.680, 351.932 280.972 C 357.405 283.239, 363 279.657, 363 273.888 C 363 268.063, 355.843 264.222, 351.187 267.549 M 353.141 272.330 C 351.442 274.378, 352.836 277.166, 355.377 276.803 C 356.891 276.587, 357.500 275.786, 357.500 274.014 C 357.500 271.161, 354.934 270.170, 353.141 272.330 M 170.020 290.250 C 170.066 295.275, 196.946 310.758, 213.506 315.298 C 225.056 318.464, 234.752 320.272, 236.011 319.493 C 237.644 318.484, 237.127 315.172, 235.250 314.624 C 234.287 314.344, 231.250 313.821, 228.500 313.462 C 221.683 312.574, 205.753 307.668, 197.387 303.881 C 189.957 300.518, 182.574 295.866, 177 291.037 C 172.773 287.375, 169.991 287.061, 170.020 290.250 M 282.643 309.104 C 278.322 310.721, 271.347 312.543, 267.143 313.153 C 262.939 313.763, 258.938 314.708, 258.250 315.253 C 256.625 316.542, 256.650 318.652, 258.298 319.284 C 261.968 320.693, 289.337 313.627, 293.183 310.277 C 295.154 308.561, 294.511 305.964, 292.143 306.082 C 291.239 306.126, 286.964 307.486, 282.643 309.104 M 311.098 321.940 C 310.386 322.380, 309.966 323.586, 310.165 324.620 C 310.635 327.059, 315.333 327.224, 315.797 324.817 C 316.184 322.805, 312.926 320.809, 311.098 321.940 M 179.362 323.500 C 178.390 326.031, 179.815 328.165, 182.246 327.820 C 183.861 327.591, 184.590 326.721, 184.816 324.750 C 185.090 322.375, 184.779 322, 182.535 322 C 181.106 322, 179.678 322.675, 179.362 323.500 M 303.133 325.340 C 301.610 327.175, 302.791 330.187, 304.876 329.785 C 305.837 329.600, 306.500 328.492, 306.500 327.070 C 306.500 324.235, 304.782 323.352, 303.133 325.340 M 265.064 336.423 C 263.512 338.293, 264.497 340, 267.129 340 C 268.624 340, 269.057 339.443, 268.820 337.828 C 268.420 335.115, 266.688 334.466, 265.064 336.423 M 346.750 361.732 C 349.087 361.943, 352.913 361.943, 355.250 361.732 C 357.587 361.522, 355.675 361.349, 351 361.349 C 346.325 361.349, 344.413 361.522, 346.750 361.732 M 168.252 382.500 C 168.263 384.700, 168.468 385.482, 168.707 384.238 C 168.946 382.994, 168.937 381.194, 168.687 380.238 C 168.437 379.282, 168.241 380.300, 168.252 382.500 M 345.776 379.733 C 348.128 379.945, 351.728 379.942, 353.776 379.727 C 355.824 379.512, 353.900 379.339, 349.500 379.343 C 345.100 379.346, 343.424 379.522, 345.776 379.733 M 229.424 435 L 229.500 442.500 234.500 442.578 L 239.500 442.656 234.793 442.277 L 230.086 441.898 229.717 434.699 L 229.349 427.500 229.424 435 M 273.252 431.500 C 273.263 433.700, 273.468 434.482, 273.707 433.238 C 273.946 431.994, 273.937 430.194, 273.687 429.238 C 273.437 428.282, 273.241 429.300, 273.252 431.500 M 297.421 434.920 C 297.482 440.621, 297.847 442.434, 299 442.746 C 300.057 443.032, 300.146 442.900, 299.301 442.298 C 298.637 441.826, 297.932 438.330, 297.722 434.472 L 297.343 427.500 297.421 434.920 M 170.406 436.421 C 170.475 440.781, 170.896 442.449, 172 442.747 C 173.047 443.030, 173.140 442.896, 172.310 442.304 C 171.656 441.838, 170.939 438.991, 170.717 435.978 L 170.313 430.500 170.406 436.421 M 234.250 433.689 C 235.213 433.941, 236.787 433.941, 237.750 433.689 C 238.713 433.438, 237.925 433.232, 236 433.232 C 234.075 433.232, 233.287 433.438, 234.250 433.689 M 254.762 433.707 C 256.006 433.946, 257.806 433.937, 258.762 433.687 C 259.718 433.437, 258.700 433.241, 256.500 433.252 C 254.300 433.263, 253.518 433.468, 254.762 433.707 M 327.762 433.707 C 329.006 433.946, 330.806 433.937, 331.762 433.687 C 332.718 433.437, 331.700 433.241, 329.500 433.252 C 327.300 433.263, 326.518 433.468, 327.762 433.707 M 345 433.563 C 348.960 434.307, 348.825 435.771, 344.750 436.277 C 341.611 436.666, 341.631 436.685, 345.323 436.840 C 348.470 436.972, 349.088 436.690, 348.815 435.250 C 348.593 434.080, 347.410 433.417, 345.242 433.250 C 342.034 433.003, 342.032 433.006, 345 433.563 M 291.190 434.619 C 292.119 434.896, 293.074 436.226, 293.311 437.574 C 293.689 439.718, 293.728 439.680, 293.622 437.271 C 293.535 435.299, 292.932 434.460, 291.500 434.316 C 290.057 434.171, 289.970 434.255, 291.190 434.619 M 267.150 438.167 C 267.067 440.183, 266.438 442.060, 265.750 442.338 C 264.771 442.733, 264.778 442.859, 265.781 442.921 C 267.480 443.026, 268.247 440.821, 267.724 437.334 C 267.359 434.896, 267.279 435.013, 267.150 438.167 M 308 438.417 C 308 440.296, 307.539 442.062, 306.975 442.342 C 306.411 442.621, 306.522 442.734, 307.221 442.593 C 308.627 442.308, 310.188 435, 308.843 435 C 308.379 435, 308 436.538, 308 438.417 M 234.762 436.707 C 236.006 436.946, 237.806 436.937, 238.762 436.687 C 239.718 436.437, 238.700 436.241, 236.500 436.252 C 234.300 436.263, 233.518 436.468, 234.762 436.707 M 255.250 436.689 C 256.212 436.941, 257.788 436.941, 258.750 436.689 C 259.712 436.438, 258.925 436.232, 257 436.232 C 255.075 436.232, 254.287 436.438, 255.250 436.689 M 327.762 436.707 C 329.006 436.946, 330.806 436.937, 331.762 436.687 C 332.718 436.437, 331.700 436.241, 329.500 436.252 C 327.300 436.263, 326.518 436.468, 327.762 436.707 M 313.405 440.750 C 314.453 441.988, 316.028 442.964, 316.905 442.921 C 318.259 442.854, 318.273 442.759, 317 442.291 C 316.175 441.987, 314.600 441.010, 313.500 440.120 C 311.517 438.514, 311.516 438.519, 313.405 440.750 M 252.768 442.725 C 254.565 442.947, 257.265 442.943, 258.768 442.715 C 260.271 442.486, 258.800 442.304, 255.500 442.310 C 252.200 442.315, 250.971 442.502, 252.768 442.725 M 325.768 442.725 C 327.565 442.947, 330.265 442.943, 331.768 442.715 C 333.271 442.486, 331.800 442.304, 328.500 442.310 C 325.200 442.315, 323.971 442.502, 325.768 442.725 M 341.250 442.716 C 342.762 442.945, 345.238 442.945, 346.750 442.716 C 348.262 442.487, 347.025 442.300, 344 442.300 C 340.975 442.300, 339.738 442.487, 341.250 442.716" stroke="none" fill="#5f6671" fill-rule="evenodd"/><path d="M 305 94.609 C 305 97.243, 310.127 99.221, 311.442 97.093 C 311.751 96.595, 311.035 96.440, 309.852 96.749 C 308.434 97.120, 307.241 96.682, 306.350 95.465 C 305.608 94.449, 305 94.064, 305 94.609 M 162.751 98.479 C 163.333 101.525, 160.793 102.866, 158.237 100.862 C 156.666 99.630, 156.631 99.667, 157.872 101.250 C 158.627 102.213, 159.752 102.985, 160.372 102.967 C 161.600 102.931, 166.530 99.112, 165.892 98.692 C 165.676 98.550, 164.774 97.882, 163.887 97.208 C 162.488 96.145, 162.337 96.314, 162.751 98.479 M 235.082 107.119 C 221.578 108.685, 204.280 114.637, 194.172 121.196 C 183.994 127.802, 176.464 134.454, 174.981 138.152 C 174.242 139.993, 172.116 143.975, 170.256 147 L 166.875 152.500 170.366 148.500 C 173.028 145.450, 174.201 144.738, 175.301 145.500 C 176.095 146.050, 179.165 148.335, 182.122 150.579 C 185.080 152.822, 194.817 160.134, 203.759 166.829 L 220.018 179 257.759 179.123 C 278.517 179.191, 301.207 179.146, 308.183 179.023 C 315.159 178.900, 321.347 179.097, 321.936 179.460 C 323.070 180.162, 321.618 183.901, 319.733 185.132 C 319.201 185.479, 318.600 187.183, 318.398 188.919 C 318.196 190.655, 317.530 193.010, 316.918 194.154 C 316.053 195.769, 316.129 196.558, 317.260 197.688 C 318.484 198.913, 318.513 199.727, 317.442 202.822 C 316.417 205.786, 316.415 206.791, 317.433 208 C 320.260 211.357, 320.028 212.860, 316.485 214.141 C 312.586 215.552, 311.404 217.576, 313.210 219.753 C 314.252 221.008, 313.542 222.101, 308.839 226.478 C 305.029 230.024, 302.988 232.798, 302.490 235.102 C 301.404 240.127, 298.170 246, 296.488 246 C 294.660 246, 295.019 251.113, 297.016 253.520 C 297.857 254.533, 298 255.408, 297.393 255.826 C 287.667 262.528, 283.066 266.852, 280.883 271.345 C 279.234 274.739, 276.665 276.196, 268 278.655 C 262.742 280.148, 257.965 280.500, 243 280.500 C 222.303 280.500, 217.104 279.446, 202.002 272.185 C 196.203 269.397, 193.052 268.520, 188.119 268.324 C 181.877 268.076, 179.187 267.194, 181.817 266.257 C 182.542 266, 184.342 264.684, 185.817 263.334 L 188.500 260.879 186 262.096 C 184.625 262.764, 182.115 264.361, 180.423 265.643 C 177.919 267.539, 177.071 267.743, 175.872 266.737 C 172.505 263.912, 166.230 255.045, 162.279 247.529 C 159.958 243.113, 158.045 239.800, 158.029 240.167 C 157.952 241.934, 162.545 251.050, 166.539 257.059 C 172.415 265.897, 172.546 268.868, 166.821 263.453 L 162.641 259.500 166.904 264.986 C 176.904 277.854, 186.370 286.046, 199.289 293.014 C 209.770 298.668, 219.162 301.621, 232.747 303.534 C 243.576 305.059, 245.623 305.064, 258.780 303.605 C 270.647 302.289, 274.535 301.416, 281.780 298.437 C 296.942 292.205, 311.774 282.575, 319.007 274.269 C 331.087 260.396, 340.786 241.849, 343.571 227.295 C 351.369 186.537, 337.782 149.750, 306.005 125.584 C 295.843 117.855, 288.842 114.512, 273.312 109.971 C 267.813 108.363, 248.221 105.789, 244.076 106.130 C 243.209 106.201, 239.162 106.646, 235.082 107.119 M 234.500 112.014 C 211.312 115.562, 206.577 119.029, 206.526 132.500 C 206.504 138.355, 206.947 140.261, 209.234 144.151 C 210.738 146.709, 213.942 150.534, 216.354 152.651 C 230.185 164.790, 258.873 166.469, 279.540 156.349 C 286.481 152.950, 297.805 142.663, 301.861 136.072 L 304.852 131.210 302.676 129.201 C 299.698 126.452, 291.926 122.054, 283.307 118.241 C 270.709 112.667, 248.637 109.852, 234.500 112.014 M 136.118 133.927 C 134.580 134.878, 134.965 138.156, 136.682 138.728 C 137.333 138.944, 138.336 138.241, 138.911 137.166 C 140.154 134.844, 138.234 132.619, 136.118 133.927 M 369.002 162.691 C 369.001 163.896, 369.457 165.165, 370.016 165.510 C 370.575 165.856, 370.752 166.592, 370.410 167.146 C 369.603 168.451, 373.055 171.667, 375.263 171.667 C 376.542 171.667, 376.701 171.344, 375.898 170.377 C 375.309 169.668, 375.087 168.669, 375.403 168.157 C 375.720 167.645, 375.198 167.288, 374.245 167.363 C 373.189 167.446, 371.826 166.132, 370.757 164 C 369.350 161.191, 369.003 160.933, 369.002 162.691 M 324.993 181.702 C 324.446 183.241, 323.549 185.282, 322.999 186.237 C 322.449 187.193, 321.375 189.786, 320.612 192.001 C 319.395 195.532, 319.413 196.132, 320.754 196.882 C 321.897 197.522, 322.082 198.464, 321.485 200.619 C 320.136 205.490, 320.111 206.148, 321.177 208.490 C 321.882 210.036, 322.814 210.600, 324.105 210.262 C 325.147 209.990, 326 210.185, 326 210.695 C 326 211.699, 320.588 215.990, 319.290 216.015 C 316.885 216.062, 315.957 217.756, 316.932 220.320 C 317.857 222.753, 317.510 223.373, 312.783 227.738 C 303.814 236.018, 303.779 236.063, 304.268 238.622 C 304.523 239.956, 304.393 241.257, 303.979 241.513 C 303.565 241.769, 302.930 243.558, 302.568 245.489 C 302.156 247.684, 301.337 249, 300.382 249 C 299.150 249, 299.256 249.510, 300.927 251.635 C 303.808 255.297, 303.529 257.791, 300.016 259.797 C 298.374 260.733, 296.798 262.103, 296.512 262.840 C 295.477 265.515, 297.211 266.263, 303.037 265.654 C 307.432 265.195, 309.086 265.399, 310.012 266.514 C 310.984 267.686, 310.906 268.099, 309.618 268.593 C 308.735 268.932, 308.260 269.612, 308.565 270.105 C 308.869 270.597, 308.754 271.007, 308.309 271.016 C 307.864 271.024, 305.277 273.028, 302.561 275.468 C 299.844 277.907, 293.319 281.993, 288.061 284.547 C 279.610 288.651, 275.092 291.998, 275.022 294.206 C 274.986 295.353, 282.398 292.405, 291.931 287.482 C 314.570 275.789, 332.864 252.144, 339.112 226.500 C 341.725 215.776, 342.100 194.105, 339.831 185 L 338.461 179.500 332.224 179.202 C 326.188 178.914, 325.955 178.994, 324.993 181.702 M 151.013 197.500 C 150.825 201.350, 150.766 206.750, 150.882 209.500 C 151.105 214.815, 154.904 233.429, 155.620 232.713 C 155.853 232.480, 155.303 229.412, 154.398 225.895 C 153.492 222.378, 152.437 212.975, 152.053 205 C 151.526 194.057, 151.271 192.217, 151.013 197.500 M 147.336 211 C 147.336 215.125, 147.513 216.813, 147.728 214.750 C 147.944 212.688, 147.944 209.313, 147.728 207.250 C 147.513 205.188, 147.336 206.875, 147.336 211 M 148.482 223 C 149.862 231.745, 160.446 259, 162.461 259 C 162.997 259, 161.343 255.094, 159.005 250.838 C 156.844 246.902, 151.941 232.947, 150.455 226.505 C 148.597 218.445, 147.438 216.387, 148.482 223 M 348.238 229.601 C 347.573 232.770, 347.197 235.530, 347.402 235.735 C 347.975 236.308, 350.236 226.207, 349.816 224.948 C 349.613 224.339, 348.903 226.432, 348.238 229.601 M 372.079 229.550 C 372.036 230.678, 371.537 232.063, 370.972 232.628 C 369.922 233.678, 367.596 245.929, 368.311 246.644 C 369.024 247.358, 373.244 230.227, 372.695 228.848 C 372.370 228.032, 372.127 228.309, 372.079 229.550 M 115.710 232 C 116 233.107, 117.074 234, 118.117 234 C 119.333 234, 120 233.292, 120 232 C 120 230.554, 119.333 230, 117.594 230 C 115.680 230, 115.294 230.409, 115.710 232 M 344.527 242 C 342.266 248.895, 339.215 255.010, 334.673 261.750 C 332.727 264.637, 331.516 267, 331.982 267 C 332.447 267, 334.213 264.750, 335.905 262 C 339.213 256.624, 340.035 256.178, 342.357 258.500 C 343.182 259.325, 344.306 260, 344.855 260 C 345.404 260, 346.047 260.563, 346.283 261.250 C 346.520 261.938, 346.570 261.617, 346.394 260.537 C 346.219 259.457, 346.803 257.770, 347.693 256.787 C 349.185 255.138, 349.180 255, 347.624 255 C 346.696 255, 345.679 254.328, 345.364 253.506 C 345.048 252.684, 344.388 252.260, 343.895 252.565 C 343.403 252.869, 343 252.443, 343 251.618 C 343 250.793, 343.450 249.840, 344 249.500 C 344.550 249.160, 345 249.316, 345 249.847 C 345 250.378, 345.927 250.570, 347.059 250.274 C 348.510 249.895, 349.268 250.291, 349.627 251.618 C 349.907 252.653, 351.643 254.259, 353.485 255.186 C 356.337 256.622, 356.917 256.659, 357.386 255.436 C 358.107 253.558, 361.626 253.583, 362.351 255.473 C 362.676 256.319, 361.977 257.644, 360.708 258.587 L 358.500 260.228 360.750 259.708 C 362.459 259.312, 363 259.631, 363 261.035 C 363 262.051, 363.337 263.090, 363.750 263.344 C 364.163 263.598, 364.500 262.120, 364.500 260.059 C 364.500 256.061, 362.680 253, 360.302 253 C 359.314 253, 358.942 252.120, 359.138 250.249 C 359.296 248.737, 359.102 246.974, 358.706 246.333 C 358.310 245.692, 358.450 243.946, 359.018 242.452 L 360.051 239.737 357.525 241.391 C 356.136 242.302, 355 242.761, 355 242.412 C 355 242.064, 354.209 242.756, 353.241 243.950 C 352.080 245.385, 350.891 245.895, 349.741 245.454 C 347.753 244.691, 347.532 242.836, 349.055 239.684 C 350.074 237.574, 350.057 237.566, 348.555 239.441 C 347.700 240.509, 347 242.286, 347 243.391 C 347 244.844, 346.698 245.098, 345.907 244.307 C 345.117 243.517, 345.135 242.616, 345.972 241.052 C 346.609 239.862, 346.950 238.352, 346.730 237.695 C 346.510 237.038, 345.519 238.975, 344.527 242 M 318.728 240.722 C 320.503 240.943, 323.653 240.946, 325.728 240.730 C 327.802 240.513, 326.350 240.333, 322.500 240.328 C 318.650 240.324, 316.952 240.501, 318.728 240.722 M 150.029 247.128 C 149.961 248.605, 153.206 255.145, 158.403 264 C 161.470 269.225, 163.983 274.232, 163.989 275.128 C 163.995 276.023, 164.686 277.325, 165.525 278.021 C 166.884 279.149, 166.857 279.514, 165.275 281.376 C 164.132 282.721, 164.046 283.047, 165.034 282.290 C 166.964 280.810, 169.506 282.238, 168.697 284.348 C 168.272 285.456, 168.548 285.727, 169.667 285.297 C 170.970 284.797, 171.049 285.041, 170.134 286.750 C 169.176 288.541, 169.287 288.738, 171.007 288.288 C 172.359 287.934, 175.261 289.515, 180.240 293.319 C 187.135 298.587, 206.483 308.850, 207.535 307.798 C 207.807 307.526, 203.860 305.383, 198.765 303.034 C 189.228 298.639, 177.860 290.880, 179.942 290.186 C 180.587 289.971, 181.877 290.464, 182.808 291.281 C 183.739 292.098, 186.525 293.780, 189 295.018 C 191.475 296.256, 193.725 297.602, 194 298.008 C 195.072 299.594, 201.609 302.993, 203.593 302.996 C 204.745 302.998, 208.270 303.889, 211.427 304.975 C 221.018 308.275, 237.763 310.997, 248.500 311.001 C 258.492 311.005, 266.576 309.640, 279.179 305.819 C 286.242 303.678, 289.826 304.143, 286.401 306.756 C 284.618 308.117, 284.655 308.158, 287 307.413 C 288.375 306.977, 290.625 306.593, 292 306.560 C 294.054 306.511, 294.453 306.925, 294.238 308.882 C 294.016 310.904, 294.205 311.075, 295.488 310.010 C 296.320 309.320, 297 307.785, 297 306.600 C 297 303.835, 299.055 300.792, 305.395 294.166 L 310.500 288.832 304.500 292.771 C 294.425 299.385, 288.282 302.036, 273.500 306.146 C 264.413 308.672, 240.275 309.764, 230.453 308.093 C 222.830 306.796, 208.783 302.866, 202.500 300.273 C 195.024 297.187, 181.525 287.751, 173.660 280.113 C 164.273 270.998, 159.906 265.233, 154.279 254.529 C 151.958 250.113, 150.045 246.783, 150.029 247.128 M 366 251 C 365.302 252.685, 364.964 254.298, 365.250 254.583 C 365.535 254.869, 366.273 253.656, 366.889 251.889 C 368.344 247.715, 367.649 247.020, 366 251 M 178 268.863 C 178 270.443, 187.544 278.681, 194.364 282.989 C 198.066 285.326, 200.900 287.433, 200.663 287.671 C 200.425 287.908, 198.066 286.729, 195.420 285.051 C 189.793 281.483, 186.076 280.873, 190 284.162 C 193.506 287.100, 218.249 299, 220.852 299 C 225.427 299, 222.640 296.953, 214.750 294.518 C 210.213 293.117, 205.375 291.051, 204 289.926 L 201.500 287.880 204.500 289.330 C 210.241 292.107, 222.553 295.896, 230.860 297.443 C 242.888 299.683, 248.695 299.477, 253.376 296.644 L 257.251 294.298 244.376 293.747 C 237.294 293.444, 228.302 292.456, 224.393 291.551 C 208.435 287.855, 192.671 280.201, 184.289 272.080 C 180.253 268.170, 178 267.018, 178 268.863 M 325.971 273.684 C 321.590 278.563, 319.350 281.581, 321.123 280.216 C 323.093 278.699, 326.321 279.721, 325.589 281.629 C 325.285 282.422, 325.707 283, 326.590 283 C 327.431 283, 327.840 282.550, 327.500 282 C 327.149 281.433, 327.990 281, 329.441 281 C 330.848 281, 332.037 280.438, 332.081 279.750 C 332.126 279.063, 332.256 277.200, 332.370 275.611 C 332.535 273.322, 332.369 273.053, 331.572 274.318 C 330.705 275.692, 330.421 275.563, 329.532 273.390 L 328.500 270.867 325.971 273.684 M 167.200 299.200 C 166.540 299.860, 166.029 301.097, 166.063 301.950 C 166.100 302.855, 166.519 302.520, 167.070 301.145 C 167.691 299.595, 168.541 298.994, 169.558 299.384 C 170.443 299.724, 170.843 299.555, 170.493 298.989 C 169.682 297.676, 168.659 297.741, 167.200 299.200 M 240.250 302.689 C 241.213 302.941, 242.787 302.941, 243.750 302.689 C 244.713 302.438, 243.925 302.232, 242 302.232 C 240.075 302.232, 239.287 302.438, 240.250 302.689 M 185 303.337 C 185 304.014, 192.185 308.148, 192.615 307.718 C 192.814 307.519, 191.183 306.347, 188.989 305.114 C 186.795 303.881, 185 303.081, 185 303.337 M 288 313.049 C 285.525 314.062, 284.310 314.916, 285.300 314.946 C 287.119 315.001, 293 312.350, 293 311.474 C 293 311.213, 292.887 311.047, 292.750 311.104 C 292.613 311.161, 290.475 312.036, 288 313.049 M 265.762 312.707 C 267.006 312.946, 268.806 312.937, 269.762 312.687 C 270.718 312.437, 269.700 312.241, 267.500 312.252 C 265.300 312.263, 264.518 312.468, 265.762 312.707 M 230.250 313.689 C 231.213 313.941, 232.787 313.941, 233.750 313.689 C 234.713 313.438, 233.925 313.232, 232 313.232 C 230.075 313.232, 229.287 313.438, 230.250 313.689 M 236.500 317 C 236.500 318.545, 236.838 319.600, 237.250 319.345 C 237.662 319.091, 238 318.035, 238 317 C 238 315.965, 237.662 314.909, 237.250 314.655 C 236.838 314.400, 236.500 315.455, 236.500 317 M 271.500 318 C 268.732 318.704, 268.694 318.771, 271 318.866 C 272.375 318.923, 274.175 318.533, 275 318 C 276.702 316.900, 275.822 316.900, 271.500 318 M 307.494 322.006 C 306.496 323.110, 305.976 324.310, 306.339 324.673 C 306.703 325.036, 307 324.978, 307 324.544 C 307 324.110, 307.761 324.373, 308.692 325.128 C 309.683 325.931, 310.088 326.007, 309.670 325.310 C 309.268 324.641, 309.924 323.217, 311.166 322.060 C 313.327 320.047, 313.331 320, 311.344 320 C 310.225 320, 308.493 320.903, 307.494 322.006 M 274.760 325.475 C 274.384 327.444, 274.688 328, 276.139 328 C 278.324 328, 278.440 327.163, 276.590 324.725 C 275.338 323.075, 275.209 323.128, 274.760 325.475 M 265.749 330.149 C 266.614 331.014, 266.501 332.064, 265.294 334.399 C 263.800 337.290, 263.804 337.406, 265.364 336.112 C 266.808 334.915, 267.310 334.970, 269.019 336.517 C 270.943 338.258, 271 338.239, 271 335.855 C 271 334.505, 270.441 332.841, 269.758 332.158 C 268.770 331.170, 268.820 330.725, 270.008 329.974 C 271.112 329.276, 270.602 329.027, 268.050 329.015 C 265.452 329.004, 264.884 329.284, 265.749 330.149" stroke="none" fill="#242e39" fill-rule="evenodd"/><path d="M 224.500 81.945 C 223.400 82.388, 222.168 82.558, 221.761 82.323 C 221.355 82.088, 221.292 82.598, 221.622 83.457 C 222.995 87.036, 230.449 85.847, 229.247 82.241 C 228.782 80.846, 227.440 80.763, 224.500 81.945 M 212.194 84.848 C 207.854 86.200, 207.125 86.735, 208.186 87.792 C 209.249 88.850, 209.214 89.274, 207.992 90.136 C 206.765 91.002, 206.825 91.083, 208.332 90.594 C 209.339 90.267, 210.603 90, 211.141 90 C 211.678 90, 211.866 89.592, 211.558 89.093 C 211.249 88.595, 211.864 88.413, 212.923 88.690 C 214.330 89.058, 215.280 88.359, 216.450 86.097 C 217.331 84.394, 217.927 83.044, 217.776 83.098 C 217.624 83.152, 215.112 83.939, 212.194 84.848 M 229 93 C 229 93.550, 228.325 94, 227.500 94 C 226.675 94, 226 94.408, 226 94.906 C 226 95.405, 224.988 95.569, 223.750 95.270 C 222.128 94.879, 221.788 95.039, 222.530 95.844 C 223.274 96.650, 225.335 96.674, 229.957 95.930 C 237.072 94.784, 238.299 94.293, 237.457 92.931 C 236.681 91.675, 229 91.738, 229 93 M 216.583 94.750 C 215.791 95.542, 215.246 95.674, 211.941 95.875 C 210.657 95.953, 210.150 96.434, 210.595 97.155 C 211.022 97.845, 210.871 98.039, 210.220 97.636 C 208.858 96.794, 201.012 99.785, 199 101.913 C 198.175 102.786, 197.369 104.400, 197.208 105.500 C 196.994 106.966, 197.158 107.143, 197.820 106.165 C 198.317 105.430, 199.123 104.856, 199.612 104.889 C 201.268 105, 207 102.603, 207 101.799 C 207 101.360, 207.338 101.101, 207.750 101.225 C 208.162 101.348, 210.668 100.831, 213.318 100.076 C 216.600 99.140, 217.716 98.436, 216.818 97.866 C 215.855 97.256, 216.039 97.022, 217.500 97 C 219.013 96.977, 219.168 96.759, 218.137 96.106 C 216.986 95.377, 216.986 95.158, 218.137 94.700 C 218.887 94.402, 219.012 94.122, 218.417 94.079 C 217.821 94.036, 216.996 94.338, 216.583 94.750 M 273.115 95.393 C 270.581 96.797, 271.652 98.454, 274.410 97.396 C 275.303 97.053, 276 97.297, 276 97.952 C 276 98.593, 276.370 98.890, 276.822 98.610 C 277.274 98.331, 278.873 98.740, 280.375 99.520 C 281.878 100.299, 283.870 101.064, 284.803 101.218 C 285.737 101.373, 286.725 101.736, 287 102.024 C 287.275 102.312, 289.919 103.783, 292.876 105.292 C 296.996 107.394, 298.571 107.771, 299.615 106.904 C 300.365 106.282, 300.726 105.366, 300.418 104.868 C 299.050 102.654, 280.396 94.637, 278.845 95.596 C 278.380 95.883, 278 95.641, 278 95.059 C 278 93.643, 276.029 93.777, 273.115 95.393 M 232.500 101.636 C 226.289 102.619, 213.267 106.428, 207 109.096 C 190.839 115.974, 182.126 121.992, 169.999 134.655 C 159.584 145.531, 152.154 157.485, 147.461 170.917 C 144.726 178.747, 141.851 193.210, 143.195 192.379 C 143.638 192.106, 143.993 193.146, 143.985 194.691 C 143.973 196.872, 143.753 197.165, 143 196 C 142.322 194.951, 142.026 194.885, 142.015 195.781 C 142.001 197.009, 144.694 198.649, 145.451 197.874 C 145.652 197.668, 146.551 193.231, 147.449 188.013 C 154.782 145.403, 190.171 112.346, 234.717 106.493 C 258.277 103.397, 285.294 109.812, 303.500 122.825 C 326.406 139.197, 341.764 163.371, 345.063 188.250 C 346.163 196.543, 346.628 198, 348.178 198 C 350.354 198, 350.564 194.509, 348.934 185.434 C 344.425 160.336, 330.711 137.883, 310.500 122.505 C 299.122 113.848, 286.925 108.054, 271.500 103.980 C 263.603 101.894, 239.881 100.469, 232.500 101.636 M 323.194 109.037 C 323.013 111.416, 323.366 112, 324.984 112 C 327.477 112, 327.561 110.519, 325.210 107.995 C 323.459 106.116, 323.415 106.138, 323.194 109.037 M 256.596 122.050 C 254.685 123.727, 252.608 126.659, 251.979 128.564 C 248.854 138.031, 261.750 147.675, 270.810 142.647 C 276.791 139.328, 278.966 129.769, 274.912 124.615 C 269.943 118.298, 262.118 117.202, 256.596 122.050 M 142.540 161.873 C 142.187 162.987, 141.031 164.173, 139.971 164.509 C 138.729 164.903, 138.126 165.898, 138.272 167.310 C 138.398 168.515, 138.050 169.426, 137.500 169.336 C 136.950 169.246, 136.435 171.168, 136.356 173.606 C 136.276 176.045, 135.601 178.793, 134.856 179.712 C 133.714 181.120, 133.715 181.255, 134.862 180.564 C 135.697 180.061, 136.584 180.277, 137.156 181.122 C 137.840 182.131, 138.038 181.831, 137.896 180 C 137.790 178.625, 137.980 176.825, 138.319 176 C 140.395 170.953, 143.849 160.516, 143.545 160.211 C 143.346 160.012, 142.894 160.760, 142.540 161.873 M 223.564 180.964 C 225.167 182.567, 237.836 191.594, 249.500 199.445 C 255.550 203.518, 261.575 207.720, 262.889 208.784 L 265.278 210.718 259.889 214.408 C 256.925 216.437, 251.125 220.334, 247 223.067 C 242.875 225.800, 235.679 230.616, 231.009 233.768 L 222.518 239.500 260.506 239.762 C 281.399 239.907, 299.033 239.818, 299.692 239.565 C 300.351 239.312, 301.210 237.394, 301.602 235.303 C 302.139 232.438, 303.686 230.233, 307.875 226.365 C 312.621 221.981, 313.247 221.002, 312.148 219.678 C 310.301 217.453, 312.249 214.324, 315.992 213.502 C 319.525 212.726, 319.663 212.112, 317.047 208.787 C 315.931 207.368, 315.466 205.919, 315.961 205.403 C 317.373 203.932, 317.568 199.389, 316.285 197.844 C 315.360 196.728, 315.408 195.530, 316.504 192.455 C 317.278 190.280, 317.932 187.761, 317.956 186.857 C 317.980 185.953, 318.613 184.979, 319.361 184.692 C 320.110 184.404, 320.968 183.231, 321.268 182.085 L 321.813 180 272.206 180 C 240.376 180, 222.945 180.345, 223.564 180.964 M 134 184.167 C 134 184.625, 134.480 185, 135.067 185 C 135.701 185, 135.860 185.864, 135.460 187.125 C 135.006 188.555, 135.148 189.027, 135.893 188.566 C 137.568 187.531, 137.253 183.333, 135.500 183.333 C 134.675 183.333, 134 183.708, 134 184.167 M 105 201 C 105 204.367, 104.557 207, 103.992 207 C 102.317 207, 105.180 210.761, 107.743 211.929 C 110.714 213.282, 114.690 213.310, 115.510 211.984 C 115.856 211.425, 116.497 211.189, 116.935 211.460 C 118.117 212.190, 121.304 208.301, 120.539 207.063 C 119.600 205.544, 117.452 205.751, 116 207.500 C 114.225 209.639, 110.353 209.353, 107.902 206.902 C 105.796 204.796, 105.627 200.963, 107.455 196.750 C 107.999 195.494, 107.760 195, 106.607 195 C 105.310 195, 105 196.156, 105 201 M 118 202.883 C 118 203.926, 118.893 205, 120.001 205.290 C 121.102 205.578, 121.751 205.405, 121.442 204.907 C 121.134 204.408, 121.359 204, 121.941 204 C 122.523 204, 123 203.325, 123 202.500 C 123 201.567, 122.056 201, 120.500 201 C 118.718 201, 118 201.541, 118 202.883 M 132.638 207.500 C 133.282 209.178, 134.596 209.462, 135.435 208.105 C 135.740 207.612, 135.279 206.937, 134.412 206.605 C 132.160 205.741, 131.995 205.824, 132.638 207.500 M 142 349.942 C 135.586 350.902, 128.107 355.075, 123.134 360.470 C 116.649 367.506, 115.048 371.871, 115.022 382.590 C 115.002 390.794, 115.305 392.290, 118.125 397.934 C 120.537 402.761, 122.593 405.177, 127.134 408.519 C 134.705 414.093, 138.785 415.453, 148 415.472 C 166.677 415.510, 180 401.782, 180 382.500 C 180 372.657, 177.433 365.889, 171.366 359.735 C 163.518 351.775, 153.059 348.287, 142 349.942 M 204.557 352.223 C 203.701 353.445, 203 355.089, 203 355.876 C 203 356.662, 201.863 362.075, 200.474 367.903 C 190.944 407.878, 189.937 413.255, 191.525 415.679 C 193.273 418.346, 197.109 418.748, 199.358 416.499 C 201.036 414.822, 202.377 410.362, 206.841 391.630 C 208.527 384.551, 210.190 378.477, 210.535 378.131 C 211.497 377.170, 213.572 380.500, 216.584 387.839 C 227.260 413.851, 229.381 418, 232 418 C 234.126 418, 236.539 414.179, 240.525 404.500 C 246.693 389.524, 252.155 378, 253.087 378 C 254.003 378, 255.974 384.797, 259.032 398.500 C 262.577 414.386, 263.341 416.386, 266.254 417.416 C 269.342 418.507, 274.003 415.985, 273.995 413.227 C 273.985 409.898, 260.039 352.752, 258.903 351.383 C 257.659 349.885, 254.219 349.573, 252.311 350.787 C 250.910 351.677, 246.190 361.869, 241.329 374.500 C 236.137 387.991, 232.723 395.124, 231.869 394.267 C 230.799 393.193, 221.346 371.116, 217.868 361.567 C 216.279 357.204, 214.239 352.817, 213.335 351.817 C 211.032 349.273, 206.475 349.483, 204.557 352.223 M 305.039 352.189 C 303.918 353.392, 303 354.911, 303 355.563 C 303 356.215, 298.336 367.718, 292.636 381.124 C 279.438 412.164, 279.366 412.384, 281.433 415.538 C 283.078 418.048, 286.317 418.718, 288.901 417.082 C 289.672 416.594, 291.922 413.114, 293.901 409.347 L 297.500 402.500 309.673 402.220 C 321.582 401.946, 321.862 401.989, 322.562 404.220 C 324.648 410.857, 328.380 417.057, 330.630 417.622 C 333.657 418.382, 338 415.638, 338 412.966 C 338 411.872, 334.625 402.888, 330.500 393 C 326.375 383.112, 323 374.758, 323 374.436 C 323 372.694, 314.615 352.757, 313.350 351.493 C 311.197 349.339, 307.397 349.658, 305.039 352.189 M 339.726 351.750 C 337.458 354.256, 337.544 356.544, 340 359 C 341.690 360.690, 343.333 361, 350.596 361 C 356.938 361, 359.957 361.452, 362.111 362.724 C 367.844 366.111, 367.743 375.530, 361.941 378.530 C 360.109 379.478, 356.142 380, 350.772 380 C 344.854 380, 341.802 380.450, 340.223 381.557 C 335.753 384.687, 338.661 390.994, 344.579 391.006 C 347.118 391.012, 348.742 392.590, 357 403.074 C 368.873 418.148, 368.732 418, 371.137 418 C 374.770 418, 377 416.095, 377 412.990 C 377 410.861, 375.411 408.186, 371.229 403.276 C 365.848 396.958, 362 391.679, 362 390.615 C 362 390.364, 363.388 389.854, 365.085 389.481 C 366.781 389.109, 370.103 386.935, 372.466 384.652 C 381.682 375.747, 380.124 361.256, 369.120 353.514 C 365.039 350.643, 364.282 350.484, 353.144 350.171 C 342.667 349.877, 341.273 350.041, 339.726 351.750 M 139.309 362.582 C 126.555 367.285, 122.097 384.982, 130.892 396 C 139.631 406.948, 152.625 407.845, 162.019 398.150 C 172.706 387.120, 170.570 370.038, 157.680 363.452 C 153.141 361.133, 144.366 360.717, 139.309 362.582 M 308 374.847 C 308 375.404, 306.650 378.777, 305 382.342 C 303.350 385.907, 302 389.313, 302 389.912 C 302 390.599, 304.761 391, 309.500 391 C 313.625 391, 317 390.850, 317 390.667 C 317 389.215, 309.899 374.466, 309.067 374.189 C 308.480 373.993, 308 374.289, 308 374.847 M 124.582 429.316 C 121.987 431.214, 122.990 434.275, 126.751 435.930 C 131.310 437.938, 131.138 440.436, 126.500 439.566 C 122.505 438.816, 121.552 440.598, 125.428 441.571 C 130.145 442.755, 133.740 440.093, 132.342 436.450 C 132.015 435.597, 130.445 434.639, 128.853 434.321 C 125.534 433.657, 124.323 432.277, 125.780 430.820 C 126.454 430.146, 127.460 430.176, 128.832 430.910 C 131.249 432.204, 133.149 430.342, 130.878 428.904 C 128.904 427.653, 126.655 427.800, 124.582 429.316 M 138.455 430.455 C 135.466 433.443, 135.313 436.886, 138.039 439.811 C 140.898 442.880, 145.320 442.680, 147.927 439.365 C 150.649 435.905, 150.544 433.453, 147.545 430.455 C 144.431 427.340, 141.569 427.340, 138.455 430.455 M 180.951 433.250 C 183.817 441.413, 184.174 442.109, 185.304 441.732 C 185.886 441.538, 186.883 439.831, 187.520 437.940 C 188.157 436.048, 189.048 434.500, 189.500 434.500 C 189.952 434.500, 190.843 436.048, 191.480 437.940 C 193.627 444.317, 194.414 443.461, 198.546 430.250 C 198.761 429.563, 198.536 429, 198.046 429 C 197.556 429, 196.635 430.575, 196 432.500 C 195.365 434.425, 194.479 436, 194.031 436 C 193.583 436, 192.497 434.200, 191.617 432 C 190.736 429.800, 189.634 428, 189.166 428 C 188.699 428, 187.783 429.781, 187.131 431.958 C 185.464 437.522, 184.442 437.651, 182.995 432.482 C 182.305 430.017, 181.148 428, 180.424 428 C 179.403 428, 179.521 429.176, 180.951 433.250 M 201.175 434.750 C 199.178 439.045, 198.443 441.638, 199.156 441.879 C 199.772 442.088, 200.686 441.525, 201.188 440.629 C 202.396 438.470, 209 438.361, 209 440.500 C 209 441.325, 209.669 442, 210.487 442 C 211.677 442, 211.459 440.850, 209.395 436.250 C 207.976 433.087, 206.584 429.938, 206.301 429.250 C 205.335 426.904, 204.313 428, 201.175 434.750 M 234.750 428.735 L 230 429.110 230 435.555 L 230 442 235 442 C 240.800 442, 241.795 440.270, 236.258 439.810 C 233.643 439.593, 232.417 438.973, 232.185 437.750 C 231.919 436.348, 232.564 436, 235.427 436 C 237.392 436, 239 435.550, 239 435 C 239 434.450, 237.425 434, 235.500 434 C 233.056 434, 232 433.548, 232 432.500 C 232 431.417, 233.111 431, 236 431 C 238.889 431, 240 430.583, 240 429.500 C 240 428.675, 239.887 428.081, 239.750 428.180 C 239.613 428.279, 237.363 428.529, 234.750 428.735 M 265 435 C 265 439, 265.429 442, 266 442 C 266.550 442, 267 440.200, 267 438 C 267 435.800, 267.337 434.011, 267.750 434.024 C 268.163 434.037, 269.824 435.837, 271.442 438.024 C 273.060 440.211, 274.747 442, 275.192 442 C 275.636 442, 276 438.850, 276 435 C 276 431, 275.571 428, 275 428 C 274.450 428, 274 429.800, 274 432 C 274 434.200, 273.663 435.979, 273.250 435.954 C 272.837 435.928, 271.150 434.149, 269.500 432 C 267.850 429.851, 266.163 428.072, 265.750 428.046 C 265.337 428.021, 265 431.150, 265 435 M 283 430 C 280.803 432.197, 280.503 434.564, 281.943 438.349 C 283.059 441.286, 285.915 442.397, 290.022 441.495 C 292.497 440.952, 293 440.348, 293 437.921 C 293 435.472, 292.596 435, 290.500 435 C 289.125 435, 288 435.450, 288 436 C 288 436.550, 288.675 437, 289.500 437 C 291.719 437, 291.320 438.764, 288.928 439.523 C 286.478 440.300, 283 437.589, 283 434.902 C 283 432.299, 286.864 429.857, 289.094 431.050 C 291.283 432.222, 292.950 430.216, 290.878 428.904 C 288.542 427.424, 285.096 427.904, 283 430 M 306.043 434.750 C 306.018 438.945, 306.421 442, 307 442 C 307.550 442, 308.013 440.087, 308.030 437.750 L 308.060 433.500 311.780 437.765 C 313.826 440.111, 315.837 442.024, 316.250 442.015 C 317.399 441.992, 317.149 429, 316 429 C 315.450 429, 315 430.575, 315 432.500 C 315 434.425, 314.675 436, 314.277 436 C 313.880 436, 311.874 434.087, 309.820 431.750 L 306.085 427.500 306.043 434.750 M 343.750 428.735 L 339 429.110 339 435.555 L 339 442 344 442 C 346.750 442, 349 441.550, 349 441 C 349 440.450, 347.425 440, 345.500 440 C 342.667 440, 342 439.619, 342 438 C 342 436.444, 342.667 436, 345 436 C 346.650 436, 348 435.550, 348 435 C 348 434.450, 346.650 434, 345 434 C 343 434, 342 433.500, 342 432.500 C 342 431.452, 343.056 431, 345.500 431 C 347.944 431, 349 430.548, 349 429.500 C 349 428.675, 348.887 428.081, 348.750 428.180 C 348.613 428.279, 346.363 428.529, 343.750 428.735 M 155.118 435.750 C 155.201 440.460, 155.433 441.593, 155.886 439.500 C 156.409 437.087, 157.053 436.500, 159.179 436.500 C 160.633 436.500, 162.162 436.163, 162.578 435.750 C 162.993 435.337, 161.908 435, 160.167 435 C 157.667 435, 157 434.579, 157 433 C 157 431.444, 157.667 431, 160 431 C 161.650 431, 163 430.550, 163 430 C 163 429.450, 161.200 429, 159 429 L 155 429 155.118 435.750 M 166 430 C 166 430.550, 167.125 431, 168.500 431 C 170.864 431, 171 431.300, 171 436.500 C 171 439.525, 171.450 442, 172 442 C 172.550 442, 173 439.525, 173 436.500 C 173 431.667, 173.242 431, 175 431 C 176.100 431, 177 430.550, 177 430 C 177 429.450, 174.525 429, 171.500 429 C 168.475 429, 166 429.450, 166 430 M 216 435.500 C 216 441.622, 217.483 444.567, 218.180 439.828 C 218.646 436.663, 220.789 436.443, 222.146 439.421 C 222.792 440.840, 223.976 442, 224.776 442 C 226.023 442, 226.010 441.664, 224.686 439.643 C 223.288 437.510, 223.294 437.134, 224.748 435.680 C 226.061 434.368, 226.143 433.610, 225.199 431.537 C 224.240 429.433, 223.356 429, 220.021 429 L 216 429 216 435.500 M 250 435.500 L 250 442 255 442 C 257.750 442, 260 441.550, 260 441 C 260 440.450, 258.425 440, 256.500 440 C 253.667 440, 253 439.619, 253 438 C 253 436.381, 253.667 436, 256.500 436 C 258.425 436, 260 435.550, 260 435 C 260 434.450, 258.425 434, 256.500 434 C 254.056 434, 253 433.548, 253 432.500 C 253 431.452, 254.056 431, 256.500 431 C 258.425 431, 260 430.550, 260 430 C 260 429.450, 257.750 429, 255 429 L 250 429 250 435.500 M 298 435.500 C 298 439.167, 298.436 442, 299 442 C 299.564 442, 300 439.167, 300 435.500 C 300 431.833, 299.564 429, 299 429 C 298.436 429, 298 431.833, 298 435.500 M 323 435.500 L 323 442 328 442 C 330.750 442, 333 441.550, 333 441 C 333 440.450, 331.425 440, 329.500 440 C 326.667 440, 326 439.619, 326 438 C 326 436.444, 326.667 436, 329 436 C 330.650 436, 332 435.550, 332 435 C 332 434.450, 330.650 434, 329 434 C 327 434, 326 433.500, 326 432.500 C 326 431.452, 327.056 431, 329.500 431 C 331.425 431, 333 430.550, 333 430 C 333 429.450, 330.750 429, 328 429 L 323 429 323 435.500 M 354.393 430.582 C 354.727 431.452, 355 434.377, 355 437.082 C 355 439.787, 355.450 442, 356 442 C 356.550 442, 357 440.875, 357 439.500 C 357 437.929, 357.565 437, 358.521 437 C 359.358 437, 360.555 438.125, 361.182 439.500 C 362.663 442.751, 364.402 442.736, 363.584 439.479 C 363.236 438.093, 363.428 436.068, 364.011 434.979 C 365.920 431.412, 363.640 429, 358.358 429 C 354.600 429, 353.894 429.282, 354.393 430.582 M 140.750 431.080 C 138.577 432.346, 138.440 437.290, 140.530 439.025 C 141.699 439.995, 142.641 440.029, 144.530 439.168 C 147.669 437.738, 148.007 432.609, 145.066 431.035 C 142.764 429.803, 142.946 429.801, 140.750 431.080 M 218 433 C 218 434.467, 218.667 435, 220.500 435 C 222.333 435, 223 434.467, 223 433 C 223 431.533, 222.333 431, 220.500 431 C 218.667 431, 218 431.533, 218 433 M 357 433 C 357 434.737, 357.511 435.074, 359.750 434.816 C 361.387 434.628, 362.500 433.893, 362.500 433 C 362.500 432.107, 361.387 431.372, 359.750 431.184 C 357.511 430.926, 357 431.263, 357 433 M 203.694 434.061 C 203.359 435.342, 203.710 436.335, 204.621 436.685 C 206.601 437.445, 207.029 436.828, 206.344 434.206 C 205.619 431.435, 204.398 431.368, 203.694 434.061" stroke="none" fill="#ffffff" fill-rule="evenodd"/><path d="M 265 72.348 C 265 74.419, 267.385 75.582, 273.425 76.460 C 276.133 76.853, 281.983 78.535, 286.425 80.197 C 296.067 83.805, 300.299 84.261, 300.799 81.746 C 301.054 80.466, 299.857 79.439, 296.363 77.941 C 289.411 74.961, 279.153 72.283, 271.593 71.473 C 265.951 70.869, 265 70.995, 265 72.348 M 180 88 C 178.090 89.910, 177.560 92.104, 177.945 96.500 C 178.386 101.528, 186.246 103.688, 190.950 100.073 C 192.774 98.670, 193.400 97.239, 193.400 94.465 C 193.400 87.518, 184.686 83.314, 180 88 M 183 92.500 C 182.007 93.697, 182.007 94.303, 183 95.500 C 183.685 96.325, 184.810 97, 185.500 97 C 186.190 97, 187.315 96.325, 188 95.500 C 188.993 94.303, 188.993 93.697, 188 92.500 C 187.315 91.675, 186.190 91, 185.500 91 C 184.810 91, 183.685 91.675, 183 92.500 M 336.111 107.560 C 330.187 112.545, 331.465 121.625, 338.504 124.566 C 345.678 127.564, 353 122.654, 353 114.846 C 353 106.140, 342.951 101.805, 336.111 107.560 M 340.239 110.666 C 337.989 111.572, 336.832 114.818, 337.988 116.977 C 339.799 120.361, 342.782 121.373, 345.567 119.548 C 350.986 115.997, 346.319 108.217, 340.239 110.666 M 133.409 128.972 C 132.259 129.437, 130.761 131.163, 130.080 132.806 C 129.054 135.284, 129.106 136.304, 130.384 138.776 C 132.081 142.058, 133.764 143, 137.927 143 C 141.104 143, 143.546 140.696, 144.524 136.775 C 145.075 134.570, 144.628 133.474, 142.179 131.025 C 139.091 127.937, 137.114 127.474, 133.409 128.972 M 135.667 133.667 C 134.617 134.717, 134.888 137.813, 136.096 138.559 C 136.699 138.932, 137.898 138.531, 138.760 137.669 C 140.052 136.377, 140.102 135.827, 139.042 134.550 C 137.648 132.870, 136.709 132.625, 135.667 133.667 M 355.800 151.101 C 355.578 151.765, 357.098 157.302, 359.176 163.404 C 361.255 169.507, 363.303 177.650, 363.728 181.500 C 364.414 187.720, 364.751 188.536, 366.750 188.820 C 368.628 189.086, 368.999 188.673, 368.992 186.320 C 368.977 181.069, 364.153 160.245, 361.820 155.358 C 359.584 150.677, 356.636 148.592, 355.800 151.101 M 373.323 173.601 C 372.470 175.823, 375.134 177.294, 376.868 175.560 C 377.621 174.807, 377.932 173.699, 377.559 173.096 C 376.553 171.468, 374.026 171.769, 373.323 173.601 M 375.688 181.646 C 374.272 183.061, 375.073 185, 377.073 185 C 378.471 185, 379.041 184.457, 378.823 183.333 C 378.466 181.492, 376.759 180.574, 375.688 181.646 M 113.336 183.567 C 112.448 185.882, 114.413 187.412, 115.928 185.586 C 117.210 184.043, 116.629 182, 114.910 182 C 114.375 182, 113.667 182.705, 113.336 183.567 M 378.643 192.108 C 366.304 195.461, 368.618 213.067, 381.385 212.968 C 385.796 212.934, 387.606 211.931, 390.296 208.027 C 395.560 200.390, 387.696 189.648, 378.643 192.108 M 377.217 198.250 C 373.440 202.846, 378.052 209.729, 383.506 207.636 C 386.001 206.679, 387.260 202.813, 386.084 199.722 C 385.238 197.496, 384.430 197, 381.647 197 C 379.776 197, 377.783 197.563, 377.217 198.250 M 124.435 225.037 C 125.627 237.137, 131.208 256.228, 134.644 259.957 C 135.652 261.052, 136.270 261.130, 137.132 260.268 C 137.993 259.407, 137.460 256.561, 134.985 248.811 C 133.175 243.140, 130.939 234, 130.017 228.500 C 128.493 219.407, 128.132 218.469, 126.033 218.162 C 123.749 217.828, 123.732 217.903, 124.435 225.037 M 116.346 235.540 C 115.588 237.517, 119.688 253.476, 122.412 259.150 C 123.846 262.137, 125.127 263.500, 126.500 263.500 C 128.970 263.500, 128.893 262.844, 125.084 251.500 C 123.423 246.550, 121.582 240.588, 120.993 238.250 C 119.904 233.925, 117.503 232.525, 116.346 235.540 M 209.901 247.750 C 195.212 257.636, 193.525 258.870, 194.060 259.340 C 195.364 260.486, 211.580 267.244, 217.158 268.967 C 237.338 275.200, 259.588 273.685, 282.078 264.547 C 285.386 263.202, 290.376 260.426, 293.168 258.377 C 297.588 255.132, 298.034 254.498, 296.622 253.465 C 294.172 251.674, 294.617 247.084, 297.500 244.412 C 298.875 243.138, 300 241.624, 300 241.048 C 300 240.335, 287.430 240, 260.708 240 L 221.417 240 209.901 247.750 M 330 242.570 C 330 243.433, 328.724 246.021, 327.164 248.320 C 323.970 253.028, 321 258.804, 321 260.309 C 321 262.513, 324.927 257.555, 328.043 251.415 C 329.861 247.833, 331.720 244.673, 332.174 244.392 C 333.583 243.522, 333.081 241, 331.500 241 C 330.675 241, 330 241.706, 330 242.570 M 147.366 260.488 C 146.741 262.117, 150.456 269.012, 154.637 273.980 C 156.988 276.775, 157.463 276.966, 158.781 275.648 C 160.099 274.330, 159.898 273.549, 157.026 268.830 C 153.473 262.992, 150.130 259, 148.794 259 C 148.323 259, 147.680 259.669, 147.366 260.488 M 132.073 269.635 C 127.865 274.984, 130.825 281.400, 137.500 281.400 C 144.175 281.400, 147.135 274.984, 142.927 269.635 C 141.424 267.724, 139.933 267, 137.500 267 C 135.067 267, 133.576 267.724, 132.073 269.635 M 135.667 271.667 C 135.300 272.033, 135 273.383, 135 274.667 C 135 276.345, 135.570 277, 137.031 277 C 139.549 277, 140.643 274.479, 138.989 272.487 C 137.645 270.867, 136.700 270.634, 135.667 271.667 M 168.250 299.718 C 166.368 300.393, 166.744 302.684, 169.097 304.876 C 174.026 309.468, 188.046 318.196, 189.560 317.616 C 192.687 316.415, 190.336 313.403, 181.488 307.275 C 170.062 299.361, 169.748 299.181, 168.250 299.718 M 265 323.895 C 263.423 324.333, 262.500 325.312, 262.500 326.545 C 262.500 328.242, 263.145 328.477, 267.388 328.326 C 272.362 328.149, 275.808 326.117, 274.559 324.096 C 273.819 322.898, 268.951 322.796, 265 323.895" stroke="none" fill="#17997b" fill-rule="evenodd"/><path d="M 165.469 123.250 L 159.500 129.500 165.750 123.531 C 169.188 120.249, 172 117.436, 172 117.281 C 172 116.542, 171.013 117.444, 165.469 123.250 M 167.429 152.553 C 160.564 161.835, 157.995 167.521, 154.621 180.904 C 147.828 207.841, 154.165 239.590, 170.509 260.500 C 173.088 263.800, 175.705 266.814, 176.323 267.198 C 176.942 267.581, 178.810 266.859, 180.474 265.592 C 182.138 264.325, 185.525 262.261, 188 261.006 C 192.661 258.641, 205.317 249.963, 204.796 249.490 C 204.633 249.342, 200.675 246.639, 196 243.482 C 184.656 235.823, 181.755 232.988, 175.282 223.235 C 160.229 200.554, 159.071 178.622, 171.613 153.750 C 177.279 142.516, 175.275 141.943, 167.429 152.553 M 322.453 292.250 L 318.500 296.500 322.750 292.547 C 326.702 288.871, 327.460 288, 326.703 288 C 326.540 288, 324.627 289.913, 322.453 292.250" stroke="none" fill="#952038" fill-rule="evenodd"/><path d="M 238.754 70.011 C 235.044 73.720, 234.779 74.349, 235.232 78.363 C 236.528 89.868, 249.035 94.812, 256.913 86.933 C 260.455 83.392, 261.753 77.339, 259.829 73.339 C 257.794 69.107, 252.462 66, 247.234 66 C 243.351 66, 242.239 66.526, 238.754 70.011 M 243.228 72.230 C 238.610 74.456, 239.122 81.977, 244.064 84.533 C 247.511 86.316, 250.406 85.771, 253.750 82.711 C 260.149 76.854, 251.503 68.242, 243.228 72.230 M 245.336 77.567 C 245.005 78.429, 245.214 79.614, 245.800 80.200 C 247.355 81.755, 250 80.390, 250 78.031 C 250 75.565, 246.247 75.192, 245.336 77.567 M 306.053 87.176 C 297.666 90.279, 300.342 103, 309.382 103 C 316.056 103, 319.676 93.770, 314.750 89.312 C 311.915 86.747, 309.090 86.053, 306.053 87.176 M 306.525 92.358 C 304.002 94.203, 305.353 98, 308.532 98 C 311.395 98, 313.611 94.714, 311.729 93.261 C 309.140 91.261, 308.239 91.105, 306.525 92.358 M 167.694 93.639 C 166.651 94.682, 167.972 96, 170.059 96 C 171.127 96, 172 95.325, 172 94.500 C 172 93.017, 168.930 92.403, 167.694 93.639 M 329.667 96.667 C 328.537 97.797, 328.928 100.696, 330.373 101.895 C 333.189 104.232, 337.232 100.189, 334.895 97.373 C 333.696 95.928, 330.797 95.537, 329.667 96.667 M 142.923 107.923 C 137.417 113.429, 139.796 122.457, 147.415 124.972 C 154.755 127.394, 160.500 122.942, 160.500 114.833 C 160.500 110.588, 160.074 109.460, 157.694 107.413 C 153.492 103.798, 146.817 104.029, 142.923 107.923 M 146.571 111.571 C 144.431 113.712, 144.598 116.598, 147 119 C 149.407 121.407, 150.840 121.501, 153.777 119.443 C 156.226 117.728, 156.789 113.189, 154.800 111.200 C 153.101 109.501, 148.431 109.712, 146.571 111.571 M 177.827 112.671 C 170.687 118.404, 159 130.543, 159 132.227 C 159 135.972, 162.871 133.552, 173.942 122.882 C 182.844 114.303, 185.064 111.653, 183.942 110.943 C 181.855 109.622, 181.498 109.723, 177.827 112.671 M 323.357 123.512 C 322.999 124.446, 324.635 127.144, 327.639 130.573 C 337.207 141.496, 340.121 145.627, 344.515 154.500 C 348.948 163.451, 354 178.992, 354 183.678 C 354 187.329, 355.749 190.033, 357.641 189.307 C 358.962 188.801, 359.145 187.681, 358.655 183.095 C 356.683 164.612, 346.771 143.569, 333.293 129.250 C 326.389 121.915, 324.409 120.771, 323.357 123.512 M 352.500 129.208 C 347.219 132.236, 346.662 136.815, 351.040 141.194 C 353.575 143.729, 354.603 144.129, 357.224 143.605 C 361.897 142.671, 364 140.285, 364 135.918 C 364 129.792, 357.794 126.172, 352.500 129.208 M 354.011 134.487 C 352.413 136.412, 353.421 139, 355.769 139 C 358.586 139, 360.084 137.025, 358.918 134.847 C 357.725 132.617, 355.687 132.468, 354.011 134.487 M 118.930 144.584 C 117.154 146.724, 118.941 149.500, 122.095 149.500 C 124.816 149.500, 125.843 146.721, 123.960 144.452 C 122.392 142.562, 120.568 142.610, 118.930 144.584 M 171.331 154.250 C 159.096 178.778, 160.354 200.742, 175.282 223.235 C 181.408 232.465, 184.544 235.630, 194 242.125 C 206.718 250.860, 204.749 250.567, 212.892 244.939 C 216.823 242.223, 220.261 240, 220.532 240 C 221.027 240, 260.344 213.685, 262.828 211.692 C 264.446 210.393, 263.418 209.492, 250 200.454 C 240.857 194.295, 227.058 184.593, 221.274 180.256 C 219.748 179.112, 213.829 174.649, 208.119 170.338 C 202.410 166.027, 193.185 159.219, 187.619 155.208 C 182.054 151.197, 177.350 147.485, 177.167 146.958 C 176.443 144.878, 175.283 146.327, 171.331 154.250 M 367.478 153.035 C 366.870 154.020, 370.436 164.166, 372.278 166.691 C 373.564 168.454, 376.001 167.109, 375.990 164.643 C 375.985 163.464, 374.881 160.137, 373.536 157.250 C 371.233 152.302, 368.924 150.696, 367.478 153.035 M 365.537 218.940 C 365.182 219.515, 364.443 222.771, 363.894 226.177 C 363.346 229.583, 362.020 234.972, 360.948 238.153 C 358.388 245.752, 358.434 247.221, 361.215 246.820 C 363.053 246.554, 363.823 245.136, 365.733 238.500 C 368.322 229.507, 369.163 218.946, 367.342 218.303 C 366.705 218.078, 365.893 218.365, 365.537 218.940 M 114.173 220.659 C 114.368 221.672, 115.196 222.500, 116.014 222.500 C 118.157 222.500, 117.848 219.594, 115.659 219.173 C 114.323 218.916, 113.916 219.323, 114.173 220.659 M 354.576 221.250 C 352.668 230.551, 351.450 235.079, 349.845 238.840 C 347.833 243.558, 348.100 245, 350.987 245 C 352.344 245, 353.439 243.443, 354.981 239.321 C 357.452 232.716, 359.841 222.024, 359.245 220.236 C 358.527 218.080, 355.073 218.831, 354.576 221.250 M 114.336 226.567 C 113.502 228.739, 115.618 230.782, 117.133 229.267 C 118.413 227.987, 117.620 225, 116 225 C 115.415 225, 114.667 225.705, 114.336 226.567 M 346.130 251.343 C 344.745 253.012, 346.401 255.444, 348.399 254.677 C 349.280 254.339, 350 253.422, 350 252.638 C 350 250.705, 347.386 249.830, 346.130 251.343 M 337.112 267.621 C 332.379 274.429, 331.975 275.404, 333.328 276.757 C 334.682 278.110, 335.130 277.964, 337.533 275.386 C 340.609 272.086, 345.977 263.114, 345.991 261.250 C 345.996 260.563, 345.192 260, 344.205 260 C 343.098 260, 340.377 262.924, 337.112 267.621 M 165.173 283.659 C 165.368 284.672, 166.196 285.500, 167.014 285.500 C 169.157 285.500, 168.848 282.594, 166.659 282.173 C 165.323 281.916, 164.916 282.323, 165.173 283.659 M 144.217 284.561 C 137.373 289.354, 137.545 298.424, 144.567 303.054 C 150.284 306.822, 158.040 304.541, 160.635 298.330 C 162.507 293.850, 161.677 289.937, 158.025 286.027 C 155.711 283.550, 154.403 283, 150.821 283 C 148.414 283, 145.442 283.702, 144.217 284.561 M 320.458 287.517 C 317.731 290.001, 312.015 294.614, 307.756 297.767 C 300.253 303.322, 298.844 305.167, 301.059 306.536 C 302.024 307.133, 303.690 306.209, 313.762 299.496 C 319.662 295.564, 328.936 285.998, 328.345 284.456 C 327.431 282.075, 325.690 282.750, 320.458 287.517 M 335.997 285.750 C 327.370 293.568, 332.537 305.821, 343.968 304.653 C 354.567 303.570, 357.768 290.487, 348.775 285.004 C 344.114 282.162, 339.670 282.422, 335.997 285.750 M 145.357 290.577 C 143.168 293.919, 144.471 297.980, 148.327 299.828 C 150.711 300.970, 151.453 300.933, 153.537 299.567 C 159.099 295.923, 157.018 288, 150.500 288 C 147.892 288, 146.633 288.631, 145.357 290.577 M 338.655 289.829 C 335.380 293.448, 338.010 301, 342.545 301 C 344.774 301, 349 296.447, 349 294.045 C 349 289.075, 341.941 286.198, 338.655 289.829 M 318.500 303.614 C 309.208 310.126, 300.538 314.767, 292 317.799 C 287.325 319.460, 282.734 321.124, 281.798 321.498 C 279.424 322.445, 277.706 328.097, 278.866 331.147 C 280.611 335.737, 282.420 336.448, 288.752 335.031 C 296.458 333.307, 299 332.019, 299 329.839 C 299 327.572, 297.026 327.506, 290.159 329.545 C 284.496 331.227, 283 330.899, 283 327.976 C 283 325.620, 284.808 324.623, 292.855 322.538 C 303.975 319.656, 327 305.436, 327 301.450 C 327 299.076, 323.820 299.886, 318.500 303.614" stroke="none" fill="#df4348" fill-rule="evenodd"/><path d="M 243.750 179.745 C 248.837 179.927, 257.162 179.927, 262.250 179.745 C 267.337 179.564, 263.175 179.415, 253 179.415 C 242.825 179.415, 238.662 179.564, 243.750 179.745 M 290.250 179.689 C 291.212 179.941, 292.788 179.941, 293.750 179.689 C 294.712 179.438, 293.925 179.232, 292 179.232 C 290.075 179.232, 289.288 179.438, 290.250 179.689 M 301.728 179.722 C 303.503 179.943, 306.653 179.946, 308.728 179.730 C 310.802 179.513, 309.350 179.333, 305.500 179.328 C 301.650 179.324, 299.952 179.501, 301.728 179.722 M 328.750 179.723 C 330.538 179.945, 333.462 179.945, 335.250 179.723 C 337.038 179.502, 335.575 179.320, 332 179.320 C 328.425 179.320, 326.962 179.502, 328.750 179.723 M 146.310 203.500 C 146.315 206.800, 146.502 208.029, 146.725 206.232 C 146.947 204.435, 146.943 201.735, 146.715 200.232 C 146.486 198.729, 146.304 200.200, 146.310 203.500 M 304.047 241.479 C 303.598 242.041, 302.918 243.963, 302.536 245.750 C 302.129 247.655, 301.223 249, 300.348 249 C 299.170 249, 299.293 249.557, 300.927 251.635 C 303.808 255.297, 303.529 257.791, 300.016 259.797 C 298.374 260.733, 296.798 262.103, 296.512 262.840 C 295.477 265.515, 297.211 266.263, 303.037 265.654 C 307.432 265.195, 309.086 265.399, 310.012 266.514 C 310.984 267.686, 310.906 268.099, 309.618 268.593 C 308.735 268.932, 308.260 269.612, 308.565 270.105 C 308.869 270.597, 308.754 271.007, 308.309 271.016 C 307.864 271.024, 305.277 273.028, 302.561 275.468 C 299.844 277.907, 293.319 281.993, 288.061 284.547 C 279.610 288.651, 275.092 291.998, 275.022 294.206 C 274.986 295.353, 282.398 292.405, 291.931 287.482 C 302.465 282.041, 313.929 272.570, 320.586 263.809 C 323.223 260.339, 324.394 258.357, 323.190 259.405 C 321.985 260.453, 321 260.859, 321 260.309 C 321 258.804, 323.970 253.028, 327.164 248.320 C 328.724 246.021, 330 243.433, 330 242.570 C 330 240.706, 332.614 240.455, 333.338 242.250 C 333.683 243.105, 333.867 243.026, 333.921 242 C 333.987 240.733, 331.741 240.497, 319.432 240.479 C 310.699 240.467, 304.537 240.868, 304.047 241.479 M 331.538 244.939 C 329.358 248.466, 325.292 257.117, 326.574 255.500 C 328.475 253.102, 333.226 244, 332.576 244 C 332.324 244, 331.857 244.423, 331.538 244.939 M 188.898 261.479 C 187.029 262.842, 184.488 264.489, 183.250 265.139 C 182.012 265.789, 181 266.699, 181 267.161 C 181 267.622, 182.012 268.040, 183.250 268.089 C 184.488 268.138, 187.525 268.260, 190 268.360 C 192.828 268.474, 197.287 269.888, 202.002 272.167 C 217.043 279.435, 222.284 280.500, 243 280.500 C 257.965 280.500, 262.742 280.148, 268 278.655 C 276.669 276.195, 279.236 274.738, 280.875 271.345 C 281.631 269.780, 283.638 267.030, 285.336 265.234 L 288.423 261.968 282.243 264.479 C 259.587 273.685, 237.396 275.218, 217.177 268.973 C 213.620 267.874, 206.724 265.181, 201.853 262.988 C 196.982 260.794, 192.839 259, 192.647 259 C 192.454 259, 190.767 260.115, 188.898 261.479 M 178 268.863 C 178 271.324, 194.934 284.309, 204.708 289.343 C 209.804 291.968, 222.386 295.865, 230.860 297.443 C 242.888 299.683, 248.695 299.477, 253.376 296.644 L 257.251 294.298 244.376 293.747 C 237.294 293.444, 228.302 292.456, 224.393 291.551 C 208.435 287.855, 192.671 280.201, 184.289 272.080 C 180.253 268.170, 178 267.018, 178 268.863 M 166.220 272.533 C 167.716 274.106, 169.119 275.193, 169.338 274.947 C 169.557 274.701, 168.333 273.414, 166.618 272.086 L 163.500 269.672 166.220 272.533 M 176.792 277.676 C 177.779 278.072, 177.811 278.523, 176.928 279.586 C 176.293 280.352, 175.262 280.728, 174.637 280.423 C 174.012 280.118, 175.931 282.133, 178.902 284.900 C 181.873 287.667, 184.638 289.724, 185.047 289.471 C 185.456 289.218, 186.046 289.676, 186.357 290.489 C 186.679 291.328, 187.589 291.711, 188.462 291.376 C 189.384 291.023, 190 291.334, 190 292.152 C 190 296.139, 213.288 305.288, 230.507 308.066 C 234.853 308.767, 242.683 308.989, 250.568 308.636 C 257.681 308.317, 264.512 308.038, 265.750 308.017 C 266.988 307.995, 268.002 307.645, 268.004 307.239 C 268.007 306.832, 269.469 306.427, 271.254 306.338 C 273.040 306.249, 278.325 304.833, 283 303.192 C 294.803 299.048, 295.069 298.920, 294.340 297.741 C 293.956 297.119, 294.173 296.989, 294.872 297.421 C 296.089 298.173, 304.995 293.134, 304.998 291.691 C 304.999 291.246, 305.450 291.160, 306 291.500 C 306.550 291.840, 307 291.390, 307 290.500 C 307 289.610, 307.377 289.115, 307.837 289.399 C 308.984 290.108, 313.019 287.168, 312.921 285.693 C 312.864 284.829, 312.703 284.845, 312.338 285.750 C 311.570 287.652, 310.297 287.245, 309.685 284.902 C 309.163 282.908, 308.899 282.986, 304.318 286.496 C 299.684 290.046, 282.334 299, 280.089 299 C 279.490 299, 279 299.450, 279 300 C 279 300.550, 278.663 300.917, 278.250 300.816 C 277.837 300.714, 274.946 301.189, 271.824 301.871 C 268.703 302.553, 263.978 303.282, 261.324 303.492 C 258.671 303.701, 253.575 304.159, 250 304.510 C 241.870 305.308, 223.479 302.724, 213.765 299.420 C 201.990 295.415, 181.723 283.207, 178.700 278.299 C 178.260 277.584, 177.360 277.036, 176.700 277.079 C 175.861 277.134, 175.888 277.314, 176.792 277.676 M 310.571 281.886 C 310.270 282.373, 311.147 282.986, 312.520 283.249 C 314.541 283.635, 314.802 283.466, 313.886 282.363 C 312.583 280.792, 311.356 280.616, 310.571 281.886 M 338.328 435.500 C 338.333 439.350, 338.513 440.802, 338.730 438.728 C 338.946 436.653, 338.943 433.503, 338.722 431.728 C 338.501 429.952, 338.324 431.650, 338.328 435.500" stroke="none" fill="#285e58" fill-rule="evenodd"/><path d="M 217 72.405 C 212.532 73.295, 211.500 73.875, 211.500 75.500 C 211.500 77.701, 212.330 77.778, 222 76.469 C 227.827 75.681, 230 74.587, 230 72.440 C 230 70.847, 224.890 70.833, 217 72.405 M 203.667 75.667 C 203.300 76.033, 203 77.158, 203 78.167 C 203 80.260, 206.572 80.748, 207.269 78.750 C 208.228 76.001, 205.590 73.743, 203.667 75.667 M 222.527 81.956 C 222.202 82.482, 221.321 82.677, 220.569 82.388 C 219.817 82.100, 218.901 82.352, 218.532 82.948 C 218.163 83.545, 217.373 83.731, 216.776 83.362 C 216.136 82.966, 215.978 83.155, 216.392 83.825 C 216.777 84.448, 216.606 85.868, 216.011 86.979 C 214.752 89.331, 214.929 89.388, 218.685 87.840 C 220.233 87.201, 222.063 86.771, 222.750 86.883 C 223.438 86.996, 224 86.618, 224 86.044 C 224 85.470, 223.550 85, 223 85 C 221.125 85, 221.993 82.938, 224.250 82.031 C 225.880 81.376, 226.034 81.109, 224.809 81.063 C 223.879 81.029, 222.852 81.430, 222.527 81.956 M 265.646 81.908 C 264.405 84.569, 266.108 85.857, 271.500 86.336 C 272.600 86.433, 274.132 86.917, 274.905 87.411 C 275.868 88.027, 276.087 87.950, 275.603 87.166 C 275.145 86.426, 275.444 86.233, 276.448 86.618 C 277.302 86.946, 278 87.518, 278 87.889 C 278 88.629, 287.043 91.565, 288.250 91.217 C 288.663 91.098, 289 91.354, 289 91.787 C 289 92.220, 290.350 92.677, 292 92.803 C 294.007 92.956, 295 92.571, 295 91.638 C 295 89.787, 292.656 87.925, 290.080 87.731 C 288.936 87.645, 288 87.194, 288 86.728 C 288 86.263, 287.550 86.160, 287 86.500 C 286.450 86.840, 286 86.611, 286 85.992 C 286 85.298, 285.183 85.124, 283.875 85.540 C 282.445 85.994, 281.973 85.852, 282.434 85.107 C 282.830 84.466, 282.356 83.936, 281.309 83.848 C 279.349 83.683, 277.790 83.372, 277 82.988 C 275.069 82.050, 265.983 81.186, 265.646 81.908 M 206 86.965 C 206 87.495, 205.046 88.440, 203.879 89.065 C 202.389 89.862, 201.961 89.873, 202.438 89.100 C 203.444 87.473, 201.441 87.764, 200.043 89.448 C 199.181 90.486, 199.138 91.405, 199.891 92.698 C 200.519 93.777, 200.951 93.975, 200.970 93.191 C 200.986 92.471, 201.429 92.147, 201.954 92.472 C 203.412 93.373, 208.070 91.923, 207.368 90.786 C 206.982 90.163, 207.577 90.048, 208.947 90.483 L 211.144 91.180 208.891 88.590 C 206.427 85.756, 206 85.516, 206 86.965 M 232 91.387 C 232 91.599, 233.326 91.968, 234.947 92.206 C 236.568 92.443, 237.667 92.270, 237.388 91.819 C 236.893 91.017, 232 90.625, 232 91.387 M 258.496 92.647 C 257.169 93.974, 257.107 94.451, 258.176 95.122 C 258.904 95.580, 260.309 95.702, 261.298 95.395 C 262.287 95.087, 263.744 95.372, 264.535 96.029 C 265.327 96.686, 266.641 96.968, 267.455 96.656 C 268.270 96.343, 269.202 96.518, 269.527 97.044 C 269.852 97.570, 270.568 98, 271.118 98 C 271.668 98, 271.860 97.582, 271.544 97.072 C 271.229 96.562, 271.884 95.854, 273 95.500 C 275.758 94.625, 274.362 92.698, 271.383 93.267 C 270.072 93.518, 269 93.286, 269 92.753 C 269 92.216, 267.876 92.065, 266.479 92.416 C 265.093 92.764, 263.099 92.588, 262.049 92.026 C 260.605 91.254, 259.738 91.405, 258.496 92.647 M 225 92.906 C 225 93.405, 224.098 93.577, 222.995 93.288 C 221.892 93, 220.374 93.275, 219.621 93.899 C 218.869 94.524, 217.521 94.754, 216.627 94.410 C 215.698 94.054, 215 94.286, 215 94.952 C 215 95.593, 215.359 95.896, 215.798 95.625 C 216.237 95.354, 217.249 95.545, 218.048 96.051 C 219.215 96.789, 219.108 96.978, 217.500 97.015 C 215.873 97.052, 215.780 97.225, 217 97.940 C 217.825 98.423, 219.747 98.580, 221.272 98.289 C 223.493 97.864, 223.817 97.484, 222.900 96.379 C 222.010 95.307, 222.103 95, 223.319 95 C 224.178 95, 225.160 95.450, 225.500 96 C 225.840 96.550, 226.654 96.964, 227.309 96.921 C 228.168 96.864, 228.151 96.701, 227.250 96.338 C 225.509 95.635, 225.684 94, 227.500 94 C 228.325 94, 229 93.550, 229 93 C 229 92.450, 228.100 92, 227 92 C 225.900 92, 225 92.408, 225 92.906 M 197.189 102.039 C 195.985 103.160, 195 103.820, 195 103.504 C 195 103.188, 194.100 103.411, 193 104 C 191.900 104.589, 191 105.898, 191 106.910 C 191 109.634, 195.894 109.402, 197.015 106.625 C 197.487 105.456, 197.902 105.138, 197.937 105.917 C 197.971 106.696, 198.289 107.044, 198.643 106.691 C 198.996 106.337, 198.716 105.362, 198.020 104.524 C 197.300 103.656, 197.192 103, 197.771 103 C 198.329 103, 199.045 102.325, 199.362 101.500 C 200.119 99.525, 199.802 99.604, 197.189 102.039 M 168.728 106.073 C 166.678 107.763, 165 109.788, 165 110.573 C 165 112.841, 169.436 112.252, 172.292 109.605 C 173.714 108.288, 175.119 107.452, 175.415 107.748 C 175.711 108.044, 176.254 107.501, 176.622 106.542 C 177.274 104.844, 175.672 103.048, 173.478 103.015 C 172.916 103.007, 170.778 104.383, 168.728 106.073 M 318.513 104.979 C 318.180 105.518, 318.394 106.868, 318.989 107.979 C 320.141 110.133, 321.554 110.861, 320.485 108.750 C 320.137 108.063, 320.505 108.298, 321.303 109.273 C 322.687 110.965, 322.777 110.960, 323.247 109.165 C 324.183 105.585, 320.275 102.129, 318.513 104.979 M 244.250 105.689 C 245.213 105.941, 246.787 105.941, 247.750 105.689 C 248.713 105.438, 247.925 105.232, 246 105.232 C 244.075 105.232, 243.287 105.438, 244.250 105.689 M 309.250 110.718 C 308.563 110.965, 308 111.720, 308 112.395 C 308 113.743, 314.046 118.613, 315.250 118.235 C 315.663 118.106, 316 118.450, 316 119 C 316 119.550, 317.012 119.993, 318.250 119.985 C 320.113 119.972, 320.242 119.787, 319 118.909 C 317.865 118.106, 317.806 117.724, 318.756 117.338 C 320.551 116.611, 319.245 114.969, 317.427 115.666 C 316.479 116.030, 316.026 115.735, 316.209 114.873 C 316.369 114.118, 315.938 113.612, 315.250 113.750 C 314.563 113.888, 314 113.566, 314 113.035 C 314 111.727, 310.796 110.164, 309.250 110.718 M 169.462 134.250 L 164.500 139.500 169.750 134.538 C 174.628 129.926, 175.459 129, 174.712 129 C 174.554 129, 172.192 131.363, 169.462 134.250 M 174.971 135.750 L 168.500 142.500 175.250 136.029 C 178.963 132.470, 182 129.432, 182 129.279 C 182 128.543, 180.982 129.480, 174.971 135.750 M 277.232 132 C 277.232 133.925, 277.438 134.713, 277.689 133.750 C 277.941 132.787, 277.941 131.213, 277.689 130.250 C 277.438 129.287, 277.232 130.075, 277.232 132 M 318.500 136 C 320.648 138.200, 322.631 140, 322.906 140 C 323.181 140, 321.648 138.200, 319.500 136 C 317.352 133.800, 315.369 132, 315.094 132 C 314.819 132, 316.352 133.800, 318.500 136 M 148.657 143.676 C 143.065 152.352, 138.909 160.576, 139.712 161.378 C 140.054 161.720, 139.844 162, 139.246 162 C 138.648 162, 137.811 163.463, 137.386 165.250 C 136.961 167.037, 136.558 168.725, 136.492 169 C 136.425 169.275, 135.840 171.300, 135.191 173.500 C 133.735 178.438, 133.645 180.755, 134.961 179.439 C 135.489 178.911, 136.134 176.766, 136.394 174.673 C 136.653 172.579, 137.354 170.279, 137.950 169.560 C 138.547 168.841, 138.776 167.580, 138.460 166.756 C 137.856 165.181, 140.497 163.571, 142.079 164.549 C 142.573 164.854, 142.681 164.332, 142.319 163.388 C 141.875 162.231, 142.038 161.905, 142.819 162.388 C 143.599 162.870, 143.762 162.544, 143.319 161.388 C 142.833 160.123, 143.013 159.890, 144 160.500 C 144.965 161.096, 145.170 160.886, 144.733 159.747 C 144.377 158.820, 144.747 157.927, 145.627 157.590 C 146.452 157.273, 146.847 156.561, 146.504 156.007 C 146.162 155.453, 146.385 155, 147 155 C 147.615 155, 147.840 154.550, 147.500 154 C 147.160 153.450, 147.246 152.996, 147.691 152.991 C 149.110 152.976, 156.177 141.157, 155.832 139.377 C 155.131 135.763, 152.893 137.103, 148.657 143.676 M 131.882 150.844 C 131.816 151.205, 131.816 151.838, 131.882 152.250 C 131.947 152.662, 131.523 153, 130.941 153 C 130.359 153, 130.136 153.412, 130.447 153.915 C 130.758 154.418, 130.573 154.980, 130.035 155.165 C 129.498 155.349, 128.889 156.400, 128.682 157.500 C 128.475 158.600, 127.755 160.850, 127.081 162.500 C 125.165 167.197, 123.119 176.969, 122.795 182.978 C 122.532 187.872, 122.712 188.459, 124.488 188.478 C 126.114 188.496, 126.605 187.596, 127.186 183.530 C 127.577 180.796, 128.686 175.171, 129.650 171.030 C 130.613 166.888, 131.371 162.723, 131.333 161.773 C 131.295 160.823, 131.612 160.260, 132.038 160.523 C 132.603 160.873, 136 153.085, 136 151.438 C 136 150.863, 131.983 150.283, 131.882 150.844 M 115.688 163.646 C 114.147 165.186, 115.040 168, 117.070 168 C 118.625 168, 119.060 167.461, 118.820 165.828 C 118.488 163.573, 116.880 162.453, 115.688 163.646 M 115.233 172.999 C 114.480 174.205, 114.402 175.130, 115.020 175.513 C 116.411 176.372, 117.861 175.257, 117.607 173.525 C 117.256 171.137, 116.500 170.969, 115.233 172.999 M 134.250 180.662 C 132.713 181.282, 132.579 188.622, 134.087 189.554 C 134.685 189.923, 135.698 189.659, 136.337 188.966 C 137.236 187.992, 137.192 187.882, 136.143 188.479 C 135.113 189.064, 134.948 188.738, 135.460 187.125 C 135.860 185.864, 135.701 185, 135.067 185 C 134.480 185, 134 184.576, 134 184.057 C 134 183.539, 134.941 183.296, 136.092 183.518 C 137.649 183.818, 138.032 183.526, 137.592 182.378 C 137.266 181.530, 137 180.648, 137 180.418 C 137 179.900, 135.896 179.998, 134.250 180.662 M 325.387 181.750 C 325.085 182.713, 324.342 184.625, 323.737 186 C 320.693 192.913, 320.155 195.275, 321.229 196.995 C 321.983 198.203, 322.006 199.935, 321.303 202.705 C 320.230 206.933, 321.756 210.887, 323.941 209.537 C 324.531 209.172, 325.284 209.578, 325.615 210.439 C 326.299 212.222, 322.759 215.640, 319.226 216.606 C 317.269 217.142, 317.038 217.686, 317.568 220.513 C 318.009 222.860, 317.762 224.040, 316.704 224.649 C 312.986 226.787, 305.714 234.511, 304.967 237.115 L 304.140 240 319.527 240 L 334.915 240 336.905 233.250 C 340.359 221.528, 341.287 213.452, 340.711 200.107 C 340.412 193.173, 339.659 185.813, 339.037 183.750 L 337.906 180 331.922 180 C 327.098 180, 325.831 180.340, 325.387 181.750 M 142.364 193.779 C 142.439 195.995, 142.838 197.600, 143.250 197.345 C 144.267 196.717, 144.172 192.820, 143.098 191.125 C 142.529 190.227, 142.275 191.147, 142.364 193.779 M 105.022 194.635 C 103.286 196.096, 102.123 197.879, 102.414 198.635 C 102.702 199.386, 102.501 200, 101.969 200 C 100.285 200, 100.922 203.756, 102.722 204.447 C 104.197 205.013, 104.233 205.241, 102.972 206.038 C 101.737 206.820, 101.781 206.972, 103.250 206.985 C 104.724 206.998, 105 206.053, 105 201 C 105 196.156, 105.310 195, 106.607 195 C 107.639 195, 107.997 195.537, 107.607 196.500 C 105.990 200.496, 105.998 201.256, 107.629 198.784 C 109.033 196.657, 109.973 196.186, 111.961 196.615 C 113.948 197.043, 114.174 196.930, 113 196.096 C 111.705 195.176, 111.739 195.029, 113.250 195.015 C 114.213 195.007, 115 195.605, 115 196.345 C 115 197.085, 115.823 198.435, 116.829 199.345 C 118.865 201.188, 123 201.587, 123 199.941 C 123 199.359, 122.474 199.207, 121.830 199.605 C 121.059 200.081, 120.864 199.796, 121.258 198.770 C 121.616 197.838, 120.882 196.298, 119.428 194.932 C 118.092 193.678, 116.993 193.067, 116.985 193.576 C 116.976 194.084, 116.526 193.825, 115.985 193 C 115.165 191.752, 114.852 191.729, 114.121 192.863 C 113.379 194.014, 113.145 194.014, 112.621 192.863 C 112.140 191.808, 111.868 191.782, 111.417 192.750 C 111.096 193.438, 110.394 194, 109.858 194 C 109.321 194, 109.160 193.550, 109.500 193 C 110.683 191.086, 108.133 192.017, 105.022 194.635 M 131.490 198.016 C 131.144 198.575, 130.443 198.774, 129.931 198.457 C 129.419 198.141, 128.967 198.246, 128.927 198.691 C 128.139 207.365, 128.353 208.118, 131.749 208.633 C 132.613 208.764, 132.831 207.877, 132.455 205.745 C 132.157 204.053, 131.681 202.293, 131.398 201.834 C 131.114 201.375, 132.209 201, 133.830 201 C 136.024 201, 136.742 201.448, 136.639 202.750 C 136.563 203.713, 135.825 205.048, 135 205.718 C 133.877 206.630, 133.829 206.944, 134.809 206.968 C 135.529 206.986, 135.840 207.450, 135.500 208 C 134.151 210.183, 137.057 208.843, 138.523 206.606 C 141.247 202.448, 138.469 197, 133.625 197 C 132.796 197, 131.835 197.457, 131.490 198.016 M 355 199 C 351.083 202.917, 353.515 208.424, 359.334 208.816 C 363.077 209.068, 366 206.420, 366 202.777 C 366 200.199, 362.401 197, 359.500 197 C 358.125 197, 356.100 197.900, 355 199 M 357.058 202.430 C 356.114 203.567, 356.243 204.052, 357.685 204.795 C 360.136 206.057, 362 205.246, 362 202.917 C 362 200.625, 358.816 200.312, 357.058 202.430 M 119.110 204.724 L 116.720 205.176 119.110 206.400 C 120.773 207.251, 121.724 207.300, 122.235 206.562 C 123.191 205.179, 123.199 203.964, 122.250 204.136 C 121.838 204.211, 120.424 204.476, 119.110 204.724 M 112.500 208 L 109.500 208.763 112.191 208.882 C 113.671 208.947, 115.160 208.550, 115.500 208 C 115.840 207.450, 115.979 207.053, 115.809 207.118 C 115.639 207.183, 114.150 207.580, 112.500 208 M 161.200 311.200 C 158.356 314.044, 161.138 318.726, 164.952 317.515 C 166.379 317.062, 167 316.009, 167 314.040 C 167 310.382, 163.655 308.745, 161.200 311.200 M 324.638 315.500 C 323.694 317.962, 325.053 320, 327.638 320 C 330.492 320, 331.743 317.600, 329.989 315.487 C 328.396 313.567, 325.377 313.574, 324.638 315.500 M 199.625 318.798 C 199.354 319.237, 199.450 320.110, 199.838 320.738 C 200.710 322.149, 219.604 327.654, 226.750 328.578 C 231.594 329.205, 232 329.099, 232 327.212 C 232 325.564, 231.018 324.955, 226.951 324.083 C 224.174 323.487, 221.041 323, 219.989 323 C 218.937 323, 214.572 321.881, 210.288 320.513 C 201.846 317.817, 200.377 317.581, 199.625 318.798 M 241.775 321.559 C 236.892 324.209, 235.527 330.252, 238.510 336.020 C 240.319 339.517, 242.813 341, 246.887 341 C 253.619 341, 258.033 336.538, 257.968 329.800 C 257.895 322.174, 248.991 317.643, 241.775 321.559 M 242.333 327.615 C 240.798 329.958, 240.773 330.505, 242.091 332.865 C 244.895 337.883, 253 336.064, 253 330.416 C 253 324.904, 245.414 322.912, 242.333 327.615 M 199 330.378 C 199 331.135, 199.563 332.174, 200.250 332.686 C 202.399 334.286, 215.061 337.626, 225.663 339.389 C 227.715 339.730, 229.237 339.419, 229.999 338.501 C 231.778 336.357, 230.507 335.299, 225.262 334.558 C 222.643 334.188, 216.297 332.786, 211.161 331.442 C 200.366 328.619, 199 328.500, 199 330.378 M 347.280 349.736 C 349.909 349.943, 353.959 349.940, 356.280 349.731 C 358.601 349.521, 356.450 349.352, 351.500 349.355 C 346.550 349.358, 344.651 349.530, 347.280 349.736 M 114.328 382.500 C 114.333 386.350, 114.513 387.802, 114.730 385.728 C 114.946 383.653, 114.943 380.503, 114.722 378.728 C 114.501 376.952, 114.324 378.650, 114.328 382.500 M 180.300 383 C 180.300 386.025, 180.487 387.262, 180.716 385.750 C 180.945 384.238, 180.945 381.762, 180.716 380.250 C 180.487 378.738, 180.300 379.975, 180.300 383 M 303.750 402.740 C 307.188 402.936, 312.813 402.936, 316.250 402.740 C 319.688 402.545, 316.875 402.385, 310 402.385 C 303.125 402.385, 300.313 402.545, 303.750 402.740 M 145.762 404.707 C 147.006 404.946, 148.806 404.937, 149.762 404.687 C 150.718 404.437, 149.700 404.241, 147.500 404.252 C 145.300 404.263, 144.518 404.468, 145.762 404.707 M 154.196 435.250 L 154.392 442.500 154.742 435.750 L 155.091 429 158.962 429 C 161.123 429, 163.056 429.552, 163.338 430.250 C 163.639 430.997, 163.874 430.795, 163.921 429.750 C 163.986 428.306, 163.125 428, 159 428 L 154 428 154.196 435.250 M 170.978 428.717 C 173.991 428.939, 176.838 429.656, 177.304 430.310 C 177.896 431.140, 178.030 431.047, 177.747 430 C 177.449 428.896, 175.781 428.475, 171.421 428.406 L 165.500 428.313 170.978 428.717 M 215.196 435.250 L 215.392 442.500 215.740 435.808 L 216.089 429.115 219.794 428.726 L 223.500 428.336 219.250 428.168 L 215 428 215.196 435.250 M 232.264 428.718 C 233.784 428.947, 236.034 428.941, 237.264 428.704 C 238.494 428.467, 237.250 428.279, 234.500 428.286 C 231.750 428.294, 230.744 428.488, 232.264 428.718 M 254.481 428.714 C 257.220 428.942, 259.842 429.662, 260.307 430.314 C 260.894 431.138, 261.029 431.042, 260.748 430 C 260.456 428.918, 258.833 428.472, 254.921 428.400 L 249.500 428.300 254.481 428.714 M 264.336 435 C 264.336 439.125, 264.513 440.813, 264.728 438.750 C 264.944 436.688, 264.944 433.313, 264.728 431.250 C 264.513 429.188, 264.336 430.875, 264.336 435 M 276.336 435 C 276.336 439.125, 276.513 440.813, 276.728 438.750 C 276.944 436.688, 276.944 433.313, 276.728 431.250 C 276.513 429.188, 276.336 430.875, 276.336 435 M 298.696 428.791 C 299.355 429.210, 300.055 432.465, 300.254 436.026 L 300.615 442.500 300.807 435.250 C 300.975 428.933, 300.775 428.002, 299.250 428.015 C 298.066 428.026, 297.887 428.277, 298.696 428.791 M 305.336 435 C 305.336 439.125, 305.513 440.813, 305.728 438.750 C 305.944 436.688, 305.944 433.313, 305.728 431.250 C 305.513 429.188, 305.336 430.875, 305.336 435 M 314.688 428.646 C 314.309 429.024, 314 430.663, 314 432.289 C 314 434.960, 313.832 435.113, 312.250 433.872 C 310.664 432.629, 310.629 432.664, 311.872 434.250 C 313.973 436.928, 315 436.353, 315 432.500 C 315 426.287, 316.897 428.787, 317.278 435.504 L 317.648 442.008 317.574 435.334 C 317.506 429.207, 316.487 426.846, 314.688 428.646 M 325.250 428.716 C 326.762 428.945, 329.238 428.945, 330.750 428.716 C 332.262 428.487, 331.025 428.300, 328 428.300 C 324.975 428.300, 323.738 428.487, 325.250 428.716 M 341.264 428.718 C 342.784 428.947, 345.034 428.941, 346.264 428.704 C 347.494 428.467, 346.250 428.279, 343.500 428.286 C 340.750 428.294, 339.744 428.488, 341.264 428.718 M 355.750 428.706 C 356.988 428.944, 359.012 428.944, 360.250 428.706 C 361.488 428.467, 360.475 428.272, 358 428.272 C 355.525 428.272, 354.512 428.467, 355.750 428.706 M 173.310 436.500 C 173.315 439.800, 173.502 441.029, 173.725 439.232 C 173.947 437.435, 173.943 434.735, 173.715 433.232 C 173.486 431.729, 173.304 433.200, 173.310 436.500 M 354.310 436.500 C 354.315 439.800, 354.502 441.029, 354.725 439.232 C 354.947 437.435, 354.943 434.735, 354.715 433.232 C 354.486 431.729, 354.304 433.200, 354.310 436.500 M 158.250 434.689 C 159.213 434.941, 160.787 434.941, 161.750 434.689 C 162.713 434.438, 161.925 434.232, 160 434.232 C 158.075 434.232, 157.287 434.438, 158.250 434.689 M 156.384 437.442 C 156.080 438.234, 156.042 439.697, 156.299 440.692 C 156.614 441.906, 156.806 441.621, 156.884 439.823 C 156.955 438.181, 157.676 436.970, 158.750 436.689 C 160.390 436.261, 160.388 436.225, 158.719 436.116 C 157.739 436.052, 156.688 436.649, 156.384 437.442 M 232.316 437.500 C 232.477 439.109, 233.296 439.523, 236.508 439.619 L 240.500 439.738 236.812 439.313 C 234.469 439.042, 232.941 438.269, 232.620 437.193 C 232.253 435.965, 232.170 436.049, 232.316 437.500 M 255.991 439.704 C 257.911 439.956, 259.858 440.689, 260.317 441.331 C 260.887 442.128, 261.024 442.023, 260.749 441 C 260.485 440.021, 258.984 439.456, 256.423 439.373 C 252.665 439.251, 252.647 439.265, 255.991 439.704 M 328.991 439.741 C 330.911 439.973, 332.817 440.689, 333.226 441.331 C 333.714 442.098, 333.975 441.898, 333.985 440.750 C 333.997 439.331, 333.197 439.030, 329.750 439.160 C 325.700 439.313, 325.664 439.340, 328.991 439.741 M 343.762 439.707 C 345.006 439.946, 346.806 439.937, 347.762 439.687 C 348.718 439.437, 347.700 439.241, 345.500 439.252 C 343.300 439.263, 342.518 439.468, 343.762 439.707" stroke="none" fill="#dbd8db" fill-rule="evenodd"/></svg>